<mxfile host="app.diagrams.net" modified="2024-05-03T20:22:44.453Z" agent="Mozilla/5.0 (Windows NT 10.0; Win64; x64) AppleWebKit/537.36 (KHTML, like Gecko) Chrome/124.0.0.0 Safari/537.36" etag="YbIpO6gEv2asz-St_nKg" version="24.3.1" type="github" pages="2">
  <diagram id="LTxdpnyszCatT74xIp0X" name="modelo ER">
    <mxGraphModel dx="53" dy="514" grid="1" gridSize="10" guides="1" tooltips="1" connect="1" arrows="1" fold="1" page="1" pageScale="1" pageWidth="827" pageHeight="1169" math="0" shadow="0">
      <root>
        <mxCell id="0" />
        <mxCell id="1" parent="0" />
        <mxCell id="tz4zhaM1rUqlGJr84FCX-1" style="edgeStyle=orthogonalEdgeStyle;rounded=0;orthogonalLoop=1;jettySize=auto;html=1;endArrow=none;endFill=0;startArrow=none;startFill=0;" parent="1" source="tz4zhaM1rUqlGJr84FCX-3" target="tz4zhaM1rUqlGJr84FCX-42" edge="1">
          <mxGeometry relative="1" as="geometry" />
        </mxCell>
        <mxCell id="tz4zhaM1rUqlGJr84FCX-2" style="edgeStyle=orthogonalEdgeStyle;rounded=0;orthogonalLoop=1;jettySize=auto;html=1;exitX=0.5;exitY=0;exitDx=0;exitDy=0;entryX=0.5;entryY=1;entryDx=0;entryDy=0;endArrow=none;endFill=0;startArrow=none;startFill=0;" parent="1" source="tz4zhaM1rUqlGJr84FCX-3" target="tz4zhaM1rUqlGJr84FCX-76" edge="1">
          <mxGeometry relative="1" as="geometry" />
        </mxCell>
        <mxCell id="tz4zhaM1rUqlGJr84FCX-3" value="Usuario" style="whiteSpace=wrap;html=1;align=center;fillColor=#dae8fc;strokeColor=#6c8ebf;" parent="1" vertex="1">
          <mxGeometry x="1390" y="1020" width="100" height="40" as="geometry" />
        </mxCell>
        <mxCell id="tz4zhaM1rUqlGJr84FCX-4" style="edgeStyle=orthogonalEdgeStyle;rounded=0;orthogonalLoop=1;jettySize=auto;html=1;exitX=1;exitY=0.5;exitDx=0;exitDy=0;endArrow=none;endFill=0;" parent="1" source="tz4zhaM1rUqlGJr84FCX-5" edge="1">
          <mxGeometry relative="1" as="geometry">
            <mxPoint x="1390" y="1040" as="targetPoint" />
            <Array as="points">
              <mxPoint x="1350" y="780" />
              <mxPoint x="1350" y="1040" />
            </Array>
          </mxGeometry>
        </mxCell>
        <mxCell id="tz4zhaM1rUqlGJr84FCX-5" value="ApellidoP" style="ellipse;whiteSpace=wrap;html=1;align=center;" parent="1" vertex="1">
          <mxGeometry x="1210" y="760" width="100" height="40" as="geometry" />
        </mxCell>
        <mxCell id="tz4zhaM1rUqlGJr84FCX-6" style="edgeStyle=orthogonalEdgeStyle;rounded=0;orthogonalLoop=1;jettySize=auto;html=1;exitX=1;exitY=0.5;exitDx=0;exitDy=0;entryX=0;entryY=0.25;entryDx=0;entryDy=0;endArrow=none;endFill=0;" parent="1" source="tz4zhaM1rUqlGJr84FCX-7" edge="1">
          <mxGeometry relative="1" as="geometry">
            <Array as="points">
              <mxPoint x="1350" y="900" />
              <mxPoint x="1350" y="1040" />
            </Array>
            <mxPoint x="1390" y="1040" as="targetPoint" />
          </mxGeometry>
        </mxCell>
        <mxCell id="tz4zhaM1rUqlGJr84FCX-7" value="Telefono" style="ellipse;whiteSpace=wrap;html=1;align=center;" parent="1" vertex="1">
          <mxGeometry x="1210" y="880" width="100" height="40" as="geometry" />
        </mxCell>
        <mxCell id="tz4zhaM1rUqlGJr84FCX-8" style="edgeStyle=orthogonalEdgeStyle;rounded=0;orthogonalLoop=1;jettySize=auto;html=1;exitX=1;exitY=0.5;exitDx=0;exitDy=0;endArrow=none;endFill=0;" parent="1" source="tz4zhaM1rUqlGJr84FCX-9" edge="1">
          <mxGeometry relative="1" as="geometry">
            <mxPoint x="1390" y="1040" as="targetPoint" />
            <Array as="points">
              <mxPoint x="1350" y="840" />
              <mxPoint x="1350" y="1040" />
            </Array>
          </mxGeometry>
        </mxCell>
        <mxCell id="tz4zhaM1rUqlGJr84FCX-9" value="ApellidoM" style="ellipse;whiteSpace=wrap;html=1;align=center;" parent="1" vertex="1">
          <mxGeometry x="1210" y="820" width="100" height="40" as="geometry" />
        </mxCell>
        <mxCell id="tz4zhaM1rUqlGJr84FCX-10" style="edgeStyle=orthogonalEdgeStyle;rounded=0;orthogonalLoop=1;jettySize=auto;html=1;exitX=1;exitY=0.5;exitDx=0;exitDy=0;endArrow=none;endFill=0;" parent="1" source="tz4zhaM1rUqlGJr84FCX-11" edge="1">
          <mxGeometry relative="1" as="geometry">
            <mxPoint x="1390" y="1040" as="targetPoint" />
            <Array as="points">
              <mxPoint x="1350" y="720" />
              <mxPoint x="1350" y="1040" />
            </Array>
          </mxGeometry>
        </mxCell>
        <mxCell id="tz4zhaM1rUqlGJr84FCX-11" value="&lt;span style=&quot;text-align: left; text-wrap: nowrap;&quot;&gt;NombreUser&lt;/span&gt;" style="ellipse;whiteSpace=wrap;html=1;align=center;" parent="1" vertex="1">
          <mxGeometry x="1210" y="700" width="100" height="40" as="geometry" />
        </mxCell>
        <mxCell id="tz4zhaM1rUqlGJr84FCX-12" style="edgeStyle=orthogonalEdgeStyle;rounded=0;orthogonalLoop=1;jettySize=auto;html=1;exitX=1;exitY=0.5;exitDx=0;exitDy=0;endArrow=none;endFill=0;" parent="1" source="tz4zhaM1rUqlGJr84FCX-46" edge="1">
          <mxGeometry relative="1" as="geometry">
            <mxPoint x="1390" y="1030" as="targetPoint" />
            <Array as="points">
              <mxPoint x="1350" y="950" />
              <mxPoint x="1350" y="1040" />
              <mxPoint x="1390" y="1040" />
            </Array>
          </mxGeometry>
        </mxCell>
        <mxCell id="tz4zhaM1rUqlGJr84FCX-13" style="edgeStyle=orthogonalEdgeStyle;rounded=0;orthogonalLoop=1;jettySize=auto;html=1;exitX=1;exitY=0.5;exitDx=0;exitDy=0;endArrow=none;endFill=0;" parent="1" edge="1">
          <mxGeometry relative="1" as="geometry">
            <mxPoint x="1390" y="1038.6666666666667" as="targetPoint" />
            <Array as="points">
              <mxPoint x="1350" y="1240" />
              <mxPoint x="1350" y="1039" />
            </Array>
            <mxPoint x="1310.000000000005" y="1240" as="sourcePoint" />
          </mxGeometry>
        </mxCell>
        <mxCell id="tz4zhaM1rUqlGJr84FCX-15" style="edgeStyle=orthogonalEdgeStyle;rounded=0;orthogonalLoop=1;jettySize=auto;html=1;exitX=1;exitY=0.5;exitDx=0;exitDy=0;endArrow=none;endFill=0;" parent="1" source="tz4zhaM1rUqlGJr84FCX-16" edge="1">
          <mxGeometry relative="1" as="geometry">
            <mxPoint x="1390" y="1040" as="targetPoint" />
            <Array as="points">
              <mxPoint x="1350" y="1120" />
              <mxPoint x="1350" y="1040" />
            </Array>
          </mxGeometry>
        </mxCell>
        <mxCell id="tz4zhaM1rUqlGJr84FCX-16" value="IMG" style="ellipse;whiteSpace=wrap;html=1;align=center;dashed=1;" parent="1" vertex="1">
          <mxGeometry x="1210" y="1100" width="100" height="40" as="geometry" />
        </mxCell>
        <mxCell id="tz4zhaM1rUqlGJr84FCX-17" style="edgeStyle=orthogonalEdgeStyle;rounded=0;orthogonalLoop=1;jettySize=auto;html=1;entryX=0;entryY=0.5;entryDx=0;entryDy=0;endArrow=none;endFill=0;" parent="1" source="tz4zhaM1rUqlGJr84FCX-21" target="tz4zhaM1rUqlGJr84FCX-28" edge="1">
          <mxGeometry relative="1" as="geometry">
            <Array as="points">
              <mxPoint x="2050" y="1090" />
              <mxPoint x="2050" y="1030" />
            </Array>
          </mxGeometry>
        </mxCell>
        <mxCell id="tz4zhaM1rUqlGJr84FCX-18" style="edgeStyle=orthogonalEdgeStyle;rounded=0;orthogonalLoop=1;jettySize=auto;html=1;entryX=0;entryY=0.5;entryDx=0;entryDy=0;endArrow=none;endFill=0;" parent="1" source="tz4zhaM1rUqlGJr84FCX-21" target="tz4zhaM1rUqlGJr84FCX-31" edge="1">
          <mxGeometry relative="1" as="geometry">
            <Array as="points">
              <mxPoint x="2050" y="1090" />
              <mxPoint x="2050" y="1080" />
            </Array>
          </mxGeometry>
        </mxCell>
        <mxCell id="tz4zhaM1rUqlGJr84FCX-20" style="edgeStyle=orthogonalEdgeStyle;rounded=0;orthogonalLoop=1;jettySize=auto;html=1;endArrow=none;endFill=0;startArrow=none;startFill=0;" parent="1" source="tz4zhaM1rUqlGJr84FCX-21" target="tz4zhaM1rUqlGJr84FCX-165" edge="1">
          <mxGeometry relative="1" as="geometry" />
        </mxCell>
        <mxCell id="tz4zhaM1rUqlGJr84FCX-21" value="TipoUsuario" style="whiteSpace=wrap;html=1;align=center;fillColor=#f8cecc;strokeColor=#b85450;" parent="1" vertex="1">
          <mxGeometry x="1910" y="1070" width="100" height="40" as="geometry" />
        </mxCell>
        <mxCell id="tz4zhaM1rUqlGJr84FCX-22" style="edgeStyle=orthogonalEdgeStyle;rounded=0;orthogonalLoop=1;jettySize=auto;html=1;entryX=1;entryY=0.5;entryDx=0;entryDy=0;endArrow=none;endFill=0;" parent="1" source="tz4zhaM1rUqlGJr84FCX-24" target="tz4zhaM1rUqlGJr84FCX-21" edge="1">
          <mxGeometry relative="1" as="geometry">
            <Array as="points">
              <mxPoint x="2150" y="980" />
              <mxPoint x="2050" y="980" />
              <mxPoint x="2050" y="1110" />
            </Array>
          </mxGeometry>
        </mxCell>
        <mxCell id="tz4zhaM1rUqlGJr84FCX-23" value="Password" style="ellipse;whiteSpace=wrap;html=1;align=center;" parent="1" vertex="1">
          <mxGeometry x="1210" y="1160" width="100" height="40" as="geometry" />
        </mxCell>
        <mxCell id="tz4zhaM1rUqlGJr84FCX-24" value="ID_TUsuario" style="ellipse;whiteSpace=wrap;html=1;align=center;fontStyle=4;" parent="1" vertex="1">
          <mxGeometry x="2140" y="960" width="100" height="40" as="geometry" />
        </mxCell>
        <mxCell id="tz4zhaM1rUqlGJr84FCX-25" style="edgeStyle=orthogonalEdgeStyle;rounded=0;orthogonalLoop=1;jettySize=auto;html=1;exitX=1;exitY=0.5;exitDx=0;exitDy=0;endArrow=none;endFill=0;" parent="1" source="tz4zhaM1rUqlGJr84FCX-23" edge="1">
          <mxGeometry relative="1" as="geometry">
            <mxPoint x="1390" y="1040.0000000000002" as="targetPoint" />
            <Array as="points">
              <mxPoint x="1350" y="1180" />
              <mxPoint x="1350" y="1040" />
            </Array>
          </mxGeometry>
        </mxCell>
        <mxCell id="tz4zhaM1rUqlGJr84FCX-26" value="FechaNac" style="ellipse;whiteSpace=wrap;html=1;align=center;dashed=1;" parent="1" vertex="1">
          <mxGeometry x="1200" y="990" width="100" height="40" as="geometry" />
        </mxCell>
        <mxCell id="tz4zhaM1rUqlGJr84FCX-27" style="edgeStyle=orthogonalEdgeStyle;rounded=0;orthogonalLoop=1;jettySize=auto;html=1;exitX=1;exitY=0.5;exitDx=0;exitDy=0;entryX=0;entryY=0.25;entryDx=0;entryDy=0;endArrow=none;endFill=0;" parent="1" edge="1">
          <mxGeometry relative="1" as="geometry">
            <mxPoint x="1310" y="1300" as="sourcePoint" />
            <mxPoint x="1390" y="1040" as="targetPoint" />
            <Array as="points">
              <mxPoint x="1310" y="1301" />
              <mxPoint x="1350" y="1301" />
              <mxPoint x="1350" y="1040" />
            </Array>
          </mxGeometry>
        </mxCell>
        <mxCell id="tz4zhaM1rUqlGJr84FCX-28" value="NombreTUsuario" style="ellipse;whiteSpace=wrap;html=1;align=center;" parent="1" vertex="1">
          <mxGeometry x="2150" y="1010" width="100" height="40" as="geometry" />
        </mxCell>
        <mxCell id="tz4zhaM1rUqlGJr84FCX-29" style="edgeStyle=orthogonalEdgeStyle;rounded=0;orthogonalLoop=1;jettySize=auto;html=1;exitX=1;exitY=0.5;exitDx=0;exitDy=0;endArrow=none;endFill=0;" parent="1" source="tz4zhaM1rUqlGJr84FCX-30" edge="1">
          <mxGeometry relative="1" as="geometry">
            <mxPoint x="1390" y="1040" as="targetPoint" />
          </mxGeometry>
        </mxCell>
        <mxCell id="tz4zhaM1rUqlGJr84FCX-30" value="FechaReg" style="ellipse;whiteSpace=wrap;html=1;align=center;dashed=1;" parent="1" vertex="1">
          <mxGeometry x="1210" y="1040" width="100" height="40" as="geometry" />
        </mxCell>
        <mxCell id="tz4zhaM1rUqlGJr84FCX-31" value="&lt;span style=&quot;text-align: left; text-wrap: nowrap;&quot;&gt;Descripción&lt;/span&gt;" style="ellipse;whiteSpace=wrap;html=1;align=center;" parent="1" vertex="1">
          <mxGeometry x="2150" y="1060" width="100" height="40" as="geometry" />
        </mxCell>
        <mxCell id="tz4zhaM1rUqlGJr84FCX-41" style="edgeStyle=orthogonalEdgeStyle;rounded=0;orthogonalLoop=1;jettySize=auto;html=1;entryX=0;entryY=0.5;entryDx=0;entryDy=0;endArrow=none;endFill=0;" parent="1" source="tz4zhaM1rUqlGJr84FCX-42" target="tz4zhaM1rUqlGJr84FCX-21" edge="1">
          <mxGeometry relative="1" as="geometry" />
        </mxCell>
        <mxCell id="tz4zhaM1rUqlGJr84FCX-42" value="TIene" style="shape=rhombus;perimeter=rhombusPerimeter;whiteSpace=wrap;html=1;align=center;" parent="1" vertex="1">
          <mxGeometry x="1680" y="1020" width="120" height="60" as="geometry" />
        </mxCell>
        <mxCell id="tz4zhaM1rUqlGJr84FCX-45" value="" style="edgeStyle=orthogonalEdgeStyle;rounded=0;orthogonalLoop=1;jettySize=auto;html=1;endArrow=none;endFill=0;" parent="1" source="tz4zhaM1rUqlGJr84FCX-26" edge="1">
          <mxGeometry relative="1" as="geometry">
            <mxPoint x="1390" y="1040" as="targetPoint" />
            <Array as="points">
              <mxPoint x="1350" y="1010" />
              <mxPoint x="1350" y="1040" />
            </Array>
          </mxGeometry>
        </mxCell>
        <mxCell id="tz4zhaM1rUqlGJr84FCX-46" value="Email" style="ellipse;whiteSpace=wrap;html=1;align=center;" parent="1" vertex="1">
          <mxGeometry x="1210" y="930" width="100" height="40" as="geometry" />
        </mxCell>
        <mxCell id="tz4zhaM1rUqlGJr84FCX-51" value="&lt;span style=&quot;border-bottom: 1px dotted&quot;&gt;ID_TUsuario&lt;/span&gt;" style="ellipse;whiteSpace=wrap;html=1;align=center;" parent="1" vertex="1">
          <mxGeometry x="1210" y="1280" width="100" height="40" as="geometry" />
        </mxCell>
        <mxCell id="5z2-UKMdd_kbWTUBQfvs-12" style="edgeStyle=orthogonalEdgeStyle;rounded=0;orthogonalLoop=1;jettySize=auto;html=1;exitX=1;exitY=0.5;exitDx=0;exitDy=0;entryX=0;entryY=0.5;entryDx=0;entryDy=0;endArrow=none;endFill=0;" parent="1" source="tz4zhaM1rUqlGJr84FCX-58" target="tz4zhaM1rUqlGJr84FCX-80" edge="1">
          <mxGeometry relative="1" as="geometry">
            <Array as="points">
              <mxPoint x="1860" y="1510" />
              <mxPoint x="1860" y="1460" />
            </Array>
          </mxGeometry>
        </mxCell>
        <mxCell id="tz4zhaM1rUqlGJr84FCX-58" value="Relacion con el paciente" style="ellipse;whiteSpace=wrap;html=1;align=center;" parent="1" vertex="1">
          <mxGeometry x="1700" y="1490" width="100" height="40" as="geometry" />
        </mxCell>
        <mxCell id="5z2-UKMdd_kbWTUBQfvs-11" style="edgeStyle=orthogonalEdgeStyle;rounded=0;orthogonalLoop=1;jettySize=auto;html=1;exitX=1;exitY=0.5;exitDx=0;exitDy=0;entryX=0;entryY=0.5;entryDx=0;entryDy=0;endArrow=none;endFill=0;" parent="1" source="tz4zhaM1rUqlGJr84FCX-62" target="tz4zhaM1rUqlGJr84FCX-80" edge="1">
          <mxGeometry relative="1" as="geometry" />
        </mxCell>
        <mxCell id="tz4zhaM1rUqlGJr84FCX-62" value="Preferencias de notificacon" style="ellipse;whiteSpace=wrap;html=1;align=center;" parent="1" vertex="1">
          <mxGeometry x="1700" y="1440" width="100" height="40" as="geometry" />
        </mxCell>
        <mxCell id="5z2-UKMdd_kbWTUBQfvs-14" style="edgeStyle=orthogonalEdgeStyle;rounded=0;orthogonalLoop=1;jettySize=auto;html=1;exitX=1;exitY=0.5;exitDx=0;exitDy=0;entryX=0;entryY=0.5;entryDx=0;entryDy=0;endArrow=none;endFill=0;" parent="1" source="tz4zhaM1rUqlGJr84FCX-67" target="tz4zhaM1rUqlGJr84FCX-80" edge="1">
          <mxGeometry relative="1" as="geometry">
            <Array as="points">
              <mxPoint x="1860" y="1570" />
              <mxPoint x="1860" y="1460" />
            </Array>
          </mxGeometry>
        </mxCell>
        <mxCell id="tz4zhaM1rUqlGJr84FCX-67" value="Privilegios de administrador" style="ellipse;whiteSpace=wrap;html=1;align=center;" parent="1" vertex="1">
          <mxGeometry x="1700" y="1550" width="100" height="40" as="geometry" />
        </mxCell>
        <mxCell id="tz4zhaM1rUqlGJr84FCX-68" style="edgeStyle=orthogonalEdgeStyle;rounded=0;orthogonalLoop=1;jettySize=auto;html=1;exitX=1;exitY=0.5;exitDx=0;exitDy=0;endArrow=none;endFill=0;" parent="1" source="9C6oVeL2T3ROxALv17Od-2" edge="1">
          <mxGeometry relative="1" as="geometry">
            <mxPoint x="1304" y="549.97" as="sourcePoint" />
            <mxPoint x="1390" y="1040" as="targetPoint" />
            <Array as="points">
              <mxPoint x="1349" y="660" />
              <mxPoint x="1349" y="1040" />
            </Array>
          </mxGeometry>
        </mxCell>
        <mxCell id="tz4zhaM1rUqlGJr84FCX-70" value="Genero" style="whiteSpace=wrap;html=1;align=center;fillColor=#e1d5e7;strokeColor=#9673a6;" parent="1" vertex="1">
          <mxGeometry x="1620" y="620" width="100" height="40" as="geometry" />
        </mxCell>
        <mxCell id="tz4zhaM1rUqlGJr84FCX-71" style="edgeStyle=orthogonalEdgeStyle;rounded=0;orthogonalLoop=1;jettySize=auto;html=1;exitX=0;exitY=0.5;exitDx=0;exitDy=0;entryX=1;entryY=0.5;entryDx=0;entryDy=0;endArrow=none;endFill=0;" parent="1" source="tz4zhaM1rUqlGJr84FCX-72" target="tz4zhaM1rUqlGJr84FCX-70" edge="1">
          <mxGeometry relative="1" as="geometry" />
        </mxCell>
        <mxCell id="tz4zhaM1rUqlGJr84FCX-72" value="ID_Genero" style="ellipse;whiteSpace=wrap;html=1;align=center;fontStyle=4;" parent="1" vertex="1">
          <mxGeometry x="1760" y="570" width="100" height="40" as="geometry" />
        </mxCell>
        <mxCell id="tz4zhaM1rUqlGJr84FCX-73" style="edgeStyle=orthogonalEdgeStyle;rounded=0;orthogonalLoop=1;jettySize=auto;html=1;exitX=0;exitY=0.5;exitDx=0;exitDy=0;endArrow=none;endFill=0;" parent="1" source="tz4zhaM1rUqlGJr84FCX-74" edge="1">
          <mxGeometry relative="1" as="geometry">
            <mxPoint x="1720" y="640" as="targetPoint" />
          </mxGeometry>
        </mxCell>
        <mxCell id="tz4zhaM1rUqlGJr84FCX-74" value="&lt;span style=&quot;text-align: left; text-wrap: nowrap;&quot;&gt;NombreG&lt;/span&gt;" style="ellipse;whiteSpace=wrap;html=1;align=center;" parent="1" vertex="1">
          <mxGeometry x="1760" y="630" width="100" height="40" as="geometry" />
        </mxCell>
        <mxCell id="tz4zhaM1rUqlGJr84FCX-75" style="edgeStyle=orthogonalEdgeStyle;rounded=0;orthogonalLoop=1;jettySize=auto;html=1;exitX=0.5;exitY=0;exitDx=0;exitDy=0;entryX=0;entryY=0.5;entryDx=0;entryDy=0;endArrow=none;endFill=0;" parent="1" source="tz4zhaM1rUqlGJr84FCX-76" target="tz4zhaM1rUqlGJr84FCX-70" edge="1">
          <mxGeometry relative="1" as="geometry" />
        </mxCell>
        <mxCell id="tz4zhaM1rUqlGJr84FCX-76" value="tienen" style="shape=rhombus;perimeter=rhombusPerimeter;whiteSpace=wrap;html=1;align=center;" parent="1" vertex="1">
          <mxGeometry x="1380" y="810" width="120" height="60" as="geometry" />
        </mxCell>
        <mxCell id="tz4zhaM1rUqlGJr84FCX-80" value="Expediente" style="whiteSpace=wrap;html=1;align=center;fillColor=#0050ef;fontColor=#ffffff;strokeColor=#001DBC;" parent="1" vertex="1">
          <mxGeometry x="1910" y="1440" width="100" height="40" as="geometry" />
        </mxCell>
        <mxCell id="5z2-UKMdd_kbWTUBQfvs-15" style="edgeStyle=orthogonalEdgeStyle;rounded=0;orthogonalLoop=1;jettySize=auto;html=1;exitX=1;exitY=0.5;exitDx=0;exitDy=0;entryX=0;entryY=0.5;entryDx=0;entryDy=0;endArrow=none;endFill=0;" parent="1" source="tz4zhaM1rUqlGJr84FCX-91" target="tz4zhaM1rUqlGJr84FCX-80" edge="1">
          <mxGeometry relative="1" as="geometry">
            <Array as="points">
              <mxPoint x="1860" y="1630" />
              <mxPoint x="1860" y="1460" />
            </Array>
          </mxGeometry>
        </mxCell>
        <mxCell id="tz4zhaM1rUqlGJr84FCX-91" value="Nombre especialidad" style="ellipse;whiteSpace=wrap;html=1;align=center;" parent="1" vertex="1">
          <mxGeometry x="1700" y="1610" width="100" height="40" as="geometry" />
        </mxCell>
        <mxCell id="5z2-UKMdd_kbWTUBQfvs-16" style="edgeStyle=orthogonalEdgeStyle;rounded=0;orthogonalLoop=1;jettySize=auto;html=1;exitX=1;exitY=0.5;exitDx=0;exitDy=0;entryX=0;entryY=0.5;entryDx=0;entryDy=0;endArrow=none;endFill=0;" parent="1" source="tz4zhaM1rUqlGJr84FCX-93" target="tz4zhaM1rUqlGJr84FCX-80" edge="1">
          <mxGeometry relative="1" as="geometry">
            <Array as="points">
              <mxPoint x="1860" y="1690" />
              <mxPoint x="1860" y="1460" />
            </Array>
          </mxGeometry>
        </mxCell>
        <mxCell id="tz4zhaM1rUqlGJr84FCX-93" value="Horas Disp" style="ellipse;whiteSpace=wrap;html=1;align=center;" parent="1" vertex="1">
          <mxGeometry x="1700" y="1670" width="100" height="40" as="geometry" />
        </mxCell>
        <mxCell id="5z2-UKMdd_kbWTUBQfvs-4" style="edgeStyle=orthogonalEdgeStyle;rounded=0;orthogonalLoop=1;jettySize=auto;html=1;exitX=1;exitY=0.5;exitDx=0;exitDy=0;entryX=0;entryY=0.5;entryDx=0;entryDy=0;endArrow=none;endFill=0;" parent="1" source="tz4zhaM1rUqlGJr84FCX-95" target="tz4zhaM1rUqlGJr84FCX-80" edge="1">
          <mxGeometry relative="1" as="geometry" />
        </mxCell>
        <mxCell id="tz4zhaM1rUqlGJr84FCX-95" value="comprobante especialidad" style="ellipse;whiteSpace=wrap;html=1;align=center;" parent="1" vertex="1">
          <mxGeometry x="1710" y="1200" width="100" height="40" as="geometry" />
        </mxCell>
        <mxCell id="5z2-UKMdd_kbWTUBQfvs-18" style="edgeStyle=orthogonalEdgeStyle;rounded=0;orthogonalLoop=1;jettySize=auto;html=1;exitX=1;exitY=0.5;exitDx=0;exitDy=0;entryX=0;entryY=0.5;entryDx=0;entryDy=0;endArrow=none;endFill=0;" parent="1" source="tz4zhaM1rUqlGJr84FCX-105" target="tz4zhaM1rUqlGJr84FCX-80" edge="1">
          <mxGeometry relative="1" as="geometry">
            <Array as="points">
              <mxPoint x="1800" y="1750" />
              <mxPoint x="1860" y="1750" />
              <mxPoint x="1860" y="1460" />
            </Array>
          </mxGeometry>
        </mxCell>
        <mxCell id="tz4zhaM1rUqlGJr84FCX-105" value="Certificaciones" style="ellipse;whiteSpace=wrap;html=1;align=center;" parent="1" vertex="1">
          <mxGeometry x="1700" y="1735.25" width="100" height="36.5" as="geometry" />
        </mxCell>
        <mxCell id="5z2-UKMdd_kbWTUBQfvs-17" style="edgeStyle=orthogonalEdgeStyle;rounded=0;orthogonalLoop=1;jettySize=auto;html=1;exitX=1;exitY=0.5;exitDx=0;exitDy=0;entryX=0;entryY=0.5;entryDx=0;entryDy=0;endArrow=none;endFill=0;" parent="1" source="tz4zhaM1rUqlGJr84FCX-107" target="tz4zhaM1rUqlGJr84FCX-80" edge="1">
          <mxGeometry relative="1" as="geometry">
            <Array as="points">
              <mxPoint x="1860" y="1810" />
              <mxPoint x="1860" y="1460" />
            </Array>
          </mxGeometry>
        </mxCell>
        <mxCell id="tz4zhaM1rUqlGJr84FCX-107" value="Cedula" style="ellipse;whiteSpace=wrap;html=1;align=center;" parent="1" vertex="1">
          <mxGeometry x="1700" y="1790" width="100" height="40" as="geometry" />
        </mxCell>
        <mxCell id="5z2-UKMdd_kbWTUBQfvs-9" style="edgeStyle=orthogonalEdgeStyle;rounded=0;orthogonalLoop=1;jettySize=auto;html=1;exitX=1;exitY=0.5;exitDx=0;exitDy=0;entryX=0;entryY=0.5;entryDx=0;entryDy=0;endArrow=none;endFill=0;" parent="1" source="tz4zhaM1rUqlGJr84FCX-109" target="tz4zhaM1rUqlGJr84FCX-80" edge="1">
          <mxGeometry relative="1" as="geometry" />
        </mxCell>
        <mxCell id="tz4zhaM1rUqlGJr84FCX-109" value="Tipo de problema" style="ellipse;whiteSpace=wrap;html=1;align=center;" parent="1" vertex="1">
          <mxGeometry x="1708" y="1304" width="100" height="40" as="geometry" />
        </mxCell>
        <mxCell id="5z2-UKMdd_kbWTUBQfvs-10" style="edgeStyle=orthogonalEdgeStyle;rounded=0;orthogonalLoop=1;jettySize=auto;html=1;exitX=1;exitY=0.5;exitDx=0;exitDy=0;entryX=0;entryY=0.5;entryDx=0;entryDy=0;endArrow=none;endFill=0;" parent="1" source="tz4zhaM1rUqlGJr84FCX-111" target="tz4zhaM1rUqlGJr84FCX-80" edge="1">
          <mxGeometry relative="1" as="geometry">
            <Array as="points">
              <mxPoint x="1860" y="1390" />
              <mxPoint x="1860" y="1460" />
            </Array>
          </mxGeometry>
        </mxCell>
        <mxCell id="tz4zhaM1rUqlGJr84FCX-111" value="Relacion con el tutor" style="ellipse;whiteSpace=wrap;html=1;align=center;" parent="1" vertex="1">
          <mxGeometry x="1700" y="1370" width="100" height="40" as="geometry" />
        </mxCell>
        <mxCell id="5z2-UKMdd_kbWTUBQfvs-28" style="edgeStyle=orthogonalEdgeStyle;rounded=0;orthogonalLoop=1;jettySize=auto;html=1;exitX=0;exitY=0.5;exitDx=0;exitDy=0;entryX=1;entryY=0.75;entryDx=0;entryDy=0;endArrow=none;endFill=0;" parent="1" source="tz4zhaM1rUqlGJr84FCX-117" target="tz4zhaM1rUqlGJr84FCX-80" edge="1">
          <mxGeometry relative="1" as="geometry">
            <Array as="points">
              <mxPoint x="2060" y="1350" />
              <mxPoint x="2060" y="1470" />
            </Array>
          </mxGeometry>
        </mxCell>
        <mxCell id="tz4zhaM1rUqlGJr84FCX-117" value="ID_Diagnostico" style="ellipse;whiteSpace=wrap;html=1;align=center;fontStyle=4;" parent="1" vertex="1">
          <mxGeometry x="2120" y="1330" width="100" height="40" as="geometry" />
        </mxCell>
        <mxCell id="5z2-UKMdd_kbWTUBQfvs-27" style="edgeStyle=orthogonalEdgeStyle;rounded=0;orthogonalLoop=1;jettySize=auto;html=1;exitX=0;exitY=0;exitDx=0;exitDy=0;entryX=1;entryY=0.75;entryDx=0;entryDy=0;endArrow=none;endFill=0;" parent="1" source="tz4zhaM1rUqlGJr84FCX-123" target="tz4zhaM1rUqlGJr84FCX-80" edge="1">
          <mxGeometry relative="1" as="geometry">
            <Array as="points">
              <mxPoint x="2060" y="1270" />
              <mxPoint x="2060" y="1470" />
            </Array>
          </mxGeometry>
        </mxCell>
        <mxCell id="tz4zhaM1rUqlGJr84FCX-123" value="ID_Tratamiento" style="ellipse;whiteSpace=wrap;html=1;align=center;fontStyle=4;" parent="1" vertex="1">
          <mxGeometry x="2120" y="1264" width="100" height="40" as="geometry" />
        </mxCell>
        <mxCell id="5z2-UKMdd_kbWTUBQfvs-30" style="edgeStyle=orthogonalEdgeStyle;rounded=0;orthogonalLoop=1;jettySize=auto;html=1;exitX=0;exitY=0.5;exitDx=0;exitDy=0;entryX=1;entryY=0.75;entryDx=0;entryDy=0;endArrow=none;endFill=0;" parent="1" source="tz4zhaM1rUqlGJr84FCX-148" target="tz4zhaM1rUqlGJr84FCX-80" edge="1">
          <mxGeometry relative="1" as="geometry" />
        </mxCell>
        <mxCell id="tz4zhaM1rUqlGJr84FCX-148" value="ID_Actividades" style="ellipse;whiteSpace=wrap;html=1;align=center;fontStyle=4;" parent="1" vertex="1">
          <mxGeometry x="2110" y="1480" width="100" height="40" as="geometry" />
        </mxCell>
        <mxCell id="5z2-UKMdd_kbWTUBQfvs-32" style="edgeStyle=orthogonalEdgeStyle;rounded=0;orthogonalLoop=1;jettySize=auto;html=1;exitX=0;exitY=0.5;exitDx=0;exitDy=0;entryX=1;entryY=0.75;entryDx=0;entryDy=0;endArrow=none;endFill=0;" parent="1" source="tz4zhaM1rUqlGJr84FCX-158" target="tz4zhaM1rUqlGJr84FCX-80" edge="1">
          <mxGeometry relative="1" as="geometry" />
        </mxCell>
        <mxCell id="tz4zhaM1rUqlGJr84FCX-158" value="ID_Progreso" style="ellipse;whiteSpace=wrap;html=1;align=center;fontStyle=4;" parent="1" vertex="1">
          <mxGeometry x="2110" y="1400" width="100" height="40" as="geometry" />
        </mxCell>
        <mxCell id="5z2-UKMdd_kbWTUBQfvs-1" style="edgeStyle=orthogonalEdgeStyle;rounded=0;orthogonalLoop=1;jettySize=auto;html=1;entryX=0.5;entryY=0;entryDx=0;entryDy=0;endArrow=none;endFill=0;" parent="1" source="tz4zhaM1rUqlGJr84FCX-165" target="tz4zhaM1rUqlGJr84FCX-80" edge="1">
          <mxGeometry relative="1" as="geometry" />
        </mxCell>
        <mxCell id="tz4zhaM1rUqlGJr84FCX-165" value="TIene" style="shape=rhombus;perimeter=rhombusPerimeter;whiteSpace=wrap;html=1;align=center;" parent="1" vertex="1">
          <mxGeometry x="1900" y="1270" width="120" height="60" as="geometry" />
        </mxCell>
        <mxCell id="9C6oVeL2T3ROxALv17Od-2" value="ID_Usuario" style="ellipse;whiteSpace=wrap;html=1;align=center;fontStyle=4;" parent="1" vertex="1">
          <mxGeometry x="1210" y="640" width="100" height="40" as="geometry" />
        </mxCell>
        <mxCell id="9C6oVeL2T3ROxALv17Od-3" value="&lt;span style=&quot;border-bottom: 1px dotted&quot;&gt;ID_Genero&lt;/span&gt;" style="ellipse;whiteSpace=wrap;html=1;align=center;" parent="1" vertex="1">
          <mxGeometry x="1210" y="1220" width="100" height="40" as="geometry" />
        </mxCell>
        <mxCell id="5z2-UKMdd_kbWTUBQfvs-8" style="edgeStyle=orthogonalEdgeStyle;rounded=0;orthogonalLoop=1;jettySize=auto;html=1;exitX=1;exitY=0.5;exitDx=0;exitDy=0;entryX=0;entryY=0.5;entryDx=0;entryDy=0;endArrow=none;endFill=0;" parent="1" source="9C6oVeL2T3ROxALv17Od-4" target="tz4zhaM1rUqlGJr84FCX-80" edge="1">
          <mxGeometry relative="1" as="geometry">
            <Array as="points">
              <mxPoint x="1860" y="1880" />
              <mxPoint x="1860" y="1460" />
            </Array>
          </mxGeometry>
        </mxCell>
        <mxCell id="9C6oVeL2T3ROxALv17Od-4" value="ID Especialidad" style="ellipse;whiteSpace=wrap;html=1;align=center;fontStyle=4;" parent="1" vertex="1">
          <mxGeometry x="1700" y="1860" width="100" height="40" as="geometry" />
        </mxCell>
        <mxCell id="5z2-UKMdd_kbWTUBQfvs-6" style="edgeStyle=orthogonalEdgeStyle;rounded=0;orthogonalLoop=1;jettySize=auto;html=1;exitX=1;exitY=0.5;exitDx=0;exitDy=0;entryX=0;entryY=0.5;entryDx=0;entryDy=0;endArrow=none;endFill=0;" parent="1" source="5z2-UKMdd_kbWTUBQfvs-2" target="tz4zhaM1rUqlGJr84FCX-80" edge="1">
          <mxGeometry relative="1" as="geometry" />
        </mxCell>
        <mxCell id="5z2-UKMdd_kbWTUBQfvs-2" value="ID_Usuario" style="ellipse;whiteSpace=wrap;html=1;align=center;fontStyle=4;" parent="1" vertex="1">
          <mxGeometry x="1710" y="1250" width="100" height="40" as="geometry" />
        </mxCell>
        <mxCell id="C1v4hzSsHAfPzVGfbtRo-2" style="edgeStyle=orthogonalEdgeStyle;rounded=0;orthogonalLoop=1;jettySize=auto;html=1;exitX=0.5;exitY=0;exitDx=0;exitDy=0;entryX=0.5;entryY=1;entryDx=0;entryDy=0;endArrow=none;endFill=0;" parent="1" source="C1v4hzSsHAfPzVGfbtRo-1" target="tz4zhaM1rUqlGJr84FCX-80" edge="1">
          <mxGeometry relative="1" as="geometry">
            <Array as="points">
              <mxPoint x="2170" y="1530" />
              <mxPoint x="1960" y="1530" />
            </Array>
          </mxGeometry>
        </mxCell>
        <mxCell id="C1v4hzSsHAfPzVGfbtRo-1" value="ID_Expediente" style="ellipse;whiteSpace=wrap;html=1;align=center;fontStyle=4;" parent="1" vertex="1">
          <mxGeometry x="2110" y="1550" width="100" height="40" as="geometry" />
        </mxCell>
      </root>
    </mxGraphModel>
  </diagram>
  <diagram id="QWADdQMu2Bb5WaqDNjb7" name="Modelo R">
    <mxGraphModel dx="978" dy="1740" grid="1" gridSize="10" guides="1" tooltips="1" connect="1" arrows="1" fold="1" page="1" pageScale="1" pageWidth="827" pageHeight="1169" math="0" shadow="0" extFonts="Permanent Marker^https://fonts.googleapis.com/css?family=Permanent+Marker">
      <root>
        <mxCell id="0" />
        <mxCell id="1" parent="0" />
        <mxCell id="5rbJTKTEX6LRlRTBi4xY-5" value="TipoUsuario" style="shape=table;startSize=30;container=1;collapsible=1;childLayout=tableLayout;fixedRows=1;rowLines=0;fontStyle=1;align=center;resizeLast=1;" parent="1" vertex="1">
          <mxGeometry x="300" y="370" width="180" height="110" as="geometry" />
        </mxCell>
        <mxCell id="5rbJTKTEX6LRlRTBi4xY-6" value="" style="shape=tableRow;horizontal=0;startSize=0;swimlaneHead=0;swimlaneBody=0;fillColor=none;collapsible=0;dropTarget=0;points=[[0,0.5],[1,0.5]];portConstraint=eastwest;top=0;left=0;right=0;bottom=1;" parent="5rbJTKTEX6LRlRTBi4xY-5" vertex="1">
          <mxGeometry y="30" width="180" height="30" as="geometry" />
        </mxCell>
        <mxCell id="5rbJTKTEX6LRlRTBi4xY-7" value="PK" style="shape=partialRectangle;connectable=0;fillColor=none;top=0;left=0;bottom=0;right=0;fontStyle=1;overflow=hidden;" parent="5rbJTKTEX6LRlRTBi4xY-6" vertex="1">
          <mxGeometry width="30" height="30" as="geometry">
            <mxRectangle width="30" height="30" as="alternateBounds" />
          </mxGeometry>
        </mxCell>
        <mxCell id="5rbJTKTEX6LRlRTBi4xY-8" value="ID_TUsuario" style="shape=partialRectangle;connectable=0;fillColor=none;top=0;left=0;bottom=0;right=0;align=left;spacingLeft=6;fontStyle=5;overflow=hidden;" parent="5rbJTKTEX6LRlRTBi4xY-6" vertex="1">
          <mxGeometry x="30" width="150" height="30" as="geometry">
            <mxRectangle width="150" height="30" as="alternateBounds" />
          </mxGeometry>
        </mxCell>
        <mxCell id="5rbJTKTEX6LRlRTBi4xY-9" value="" style="shape=tableRow;horizontal=0;startSize=0;swimlaneHead=0;swimlaneBody=0;fillColor=none;collapsible=0;dropTarget=0;points=[[0,0.5],[1,0.5]];portConstraint=eastwest;top=0;left=0;right=0;bottom=0;" parent="5rbJTKTEX6LRlRTBi4xY-5" vertex="1">
          <mxGeometry y="60" width="180" height="30" as="geometry" />
        </mxCell>
        <mxCell id="5rbJTKTEX6LRlRTBi4xY-10" value="VAR" style="shape=partialRectangle;connectable=0;fillColor=none;top=0;left=0;bottom=0;right=0;editable=1;overflow=hidden;" parent="5rbJTKTEX6LRlRTBi4xY-9" vertex="1">
          <mxGeometry width="30" height="30" as="geometry">
            <mxRectangle width="30" height="30" as="alternateBounds" />
          </mxGeometry>
        </mxCell>
        <mxCell id="5rbJTKTEX6LRlRTBi4xY-11" value="NombreTUsario" style="shape=partialRectangle;connectable=0;fillColor=none;top=0;left=0;bottom=0;right=0;align=left;spacingLeft=6;overflow=hidden;" parent="5rbJTKTEX6LRlRTBi4xY-9" vertex="1">
          <mxGeometry x="30" width="150" height="30" as="geometry">
            <mxRectangle width="150" height="30" as="alternateBounds" />
          </mxGeometry>
        </mxCell>
        <mxCell id="5rbJTKTEX6LRlRTBi4xY-12" value="" style="shape=tableRow;horizontal=0;startSize=0;swimlaneHead=0;swimlaneBody=0;fillColor=none;collapsible=0;dropTarget=0;points=[[0,0.5],[1,0.5]];portConstraint=eastwest;top=0;left=0;right=0;bottom=0;" parent="5rbJTKTEX6LRlRTBi4xY-5" vertex="1">
          <mxGeometry y="90" width="180" height="20" as="geometry" />
        </mxCell>
        <mxCell id="5rbJTKTEX6LRlRTBi4xY-13" value="VAR" style="shape=partialRectangle;connectable=0;fillColor=none;top=0;left=0;bottom=0;right=0;editable=1;overflow=hidden;" parent="5rbJTKTEX6LRlRTBi4xY-12" vertex="1">
          <mxGeometry width="30" height="20" as="geometry">
            <mxRectangle width="30" height="20" as="alternateBounds" />
          </mxGeometry>
        </mxCell>
        <mxCell id="5rbJTKTEX6LRlRTBi4xY-14" value="Descripción" style="shape=partialRectangle;connectable=0;fillColor=none;top=0;left=0;bottom=0;right=0;align=left;spacingLeft=6;overflow=hidden;" parent="5rbJTKTEX6LRlRTBi4xY-12" vertex="1">
          <mxGeometry x="30" width="150" height="20" as="geometry">
            <mxRectangle width="150" height="20" as="alternateBounds" />
          </mxGeometry>
        </mxCell>
        <mxCell id="5rbJTKTEX6LRlRTBi4xY-60" value="Genero" style="shape=table;startSize=30;container=1;collapsible=1;childLayout=tableLayout;fixedRows=1;rowLines=0;fontStyle=1;align=center;resizeLast=1;" parent="1" vertex="1">
          <mxGeometry x="210" y="170" width="180" height="90" as="geometry" />
        </mxCell>
        <mxCell id="5rbJTKTEX6LRlRTBi4xY-61" value="" style="shape=tableRow;horizontal=0;startSize=0;swimlaneHead=0;swimlaneBody=0;fillColor=none;collapsible=0;dropTarget=0;points=[[0,0.5],[1,0.5]];portConstraint=eastwest;top=0;left=0;right=0;bottom=1;" parent="5rbJTKTEX6LRlRTBi4xY-60" vertex="1">
          <mxGeometry y="30" width="180" height="30" as="geometry" />
        </mxCell>
        <mxCell id="5rbJTKTEX6LRlRTBi4xY-62" value="PK" style="shape=partialRectangle;connectable=0;fillColor=none;top=0;left=0;bottom=0;right=0;fontStyle=1;overflow=hidden;" parent="5rbJTKTEX6LRlRTBi4xY-61" vertex="1">
          <mxGeometry width="30" height="30" as="geometry">
            <mxRectangle width="30" height="30" as="alternateBounds" />
          </mxGeometry>
        </mxCell>
        <mxCell id="5rbJTKTEX6LRlRTBi4xY-63" value="ID_Genero" style="shape=partialRectangle;connectable=0;fillColor=none;top=0;left=0;bottom=0;right=0;align=left;spacingLeft=6;fontStyle=5;overflow=hidden;" parent="5rbJTKTEX6LRlRTBi4xY-61" vertex="1">
          <mxGeometry x="30" width="150" height="30" as="geometry">
            <mxRectangle width="150" height="30" as="alternateBounds" />
          </mxGeometry>
        </mxCell>
        <mxCell id="5rbJTKTEX6LRlRTBi4xY-64" value="" style="shape=tableRow;horizontal=0;startSize=0;swimlaneHead=0;swimlaneBody=0;fillColor=none;collapsible=0;dropTarget=0;points=[[0,0.5],[1,0.5]];portConstraint=eastwest;top=0;left=0;right=0;bottom=0;" parent="5rbJTKTEX6LRlRTBi4xY-60" vertex="1">
          <mxGeometry y="60" width="180" height="30" as="geometry" />
        </mxCell>
        <mxCell id="5rbJTKTEX6LRlRTBi4xY-65" value="VAR" style="shape=partialRectangle;connectable=0;fillColor=none;top=0;left=0;bottom=0;right=0;editable=1;overflow=hidden;" parent="5rbJTKTEX6LRlRTBi4xY-64" vertex="1">
          <mxGeometry width="30" height="30" as="geometry">
            <mxRectangle width="30" height="30" as="alternateBounds" />
          </mxGeometry>
        </mxCell>
        <mxCell id="5rbJTKTEX6LRlRTBi4xY-66" value="NombreG" style="shape=partialRectangle;connectable=0;fillColor=none;top=0;left=0;bottom=0;right=0;align=left;spacingLeft=6;overflow=hidden;" parent="5rbJTKTEX6LRlRTBi4xY-64" vertex="1">
          <mxGeometry x="30" width="150" height="30" as="geometry">
            <mxRectangle width="150" height="30" as="alternateBounds" />
          </mxGeometry>
        </mxCell>
        <mxCell id="5rbJTKTEX6LRlRTBi4xY-205" value="Especialidad" style="shape=table;startSize=30;container=1;collapsible=1;childLayout=tableLayout;fixedRows=1;rowLines=0;fontStyle=1;align=center;resizeLast=1;" parent="1" vertex="1">
          <mxGeometry x="1680" y="920" width="200" height="120" as="geometry" />
        </mxCell>
        <mxCell id="5rbJTKTEX6LRlRTBi4xY-206" value="" style="shape=tableRow;horizontal=0;startSize=0;swimlaneHead=0;swimlaneBody=0;fillColor=none;collapsible=0;dropTarget=0;points=[[0,0.5],[1,0.5]];portConstraint=eastwest;top=0;left=0;right=0;bottom=1;" parent="5rbJTKTEX6LRlRTBi4xY-205" vertex="1">
          <mxGeometry y="30" width="200" height="30" as="geometry" />
        </mxCell>
        <mxCell id="5rbJTKTEX6LRlRTBi4xY-207" value="FK" style="shape=partialRectangle;connectable=0;fillColor=none;top=0;left=0;bottom=0;right=0;fontStyle=1;overflow=hidden;" parent="5rbJTKTEX6LRlRTBi4xY-206" vertex="1">
          <mxGeometry width="30" height="30" as="geometry">
            <mxRectangle width="30" height="30" as="alternateBounds" />
          </mxGeometry>
        </mxCell>
        <mxCell id="5rbJTKTEX6LRlRTBi4xY-208" value="Id_Especialidad" style="shape=partialRectangle;connectable=0;fillColor=none;top=0;left=0;bottom=0;right=0;align=left;spacingLeft=6;fontStyle=5;overflow=hidden;" parent="5rbJTKTEX6LRlRTBi4xY-206" vertex="1">
          <mxGeometry x="30" width="170" height="30" as="geometry">
            <mxRectangle width="170" height="30" as="alternateBounds" />
          </mxGeometry>
        </mxCell>
        <mxCell id="5rbJTKTEX6LRlRTBi4xY-209" value="" style="shape=tableRow;horizontal=0;startSize=0;swimlaneHead=0;swimlaneBody=0;fillColor=none;collapsible=0;dropTarget=0;points=[[0,0.5],[1,0.5]];portConstraint=eastwest;top=0;left=0;right=0;bottom=0;" parent="5rbJTKTEX6LRlRTBi4xY-205" vertex="1">
          <mxGeometry y="60" width="200" height="30" as="geometry" />
        </mxCell>
        <mxCell id="5rbJTKTEX6LRlRTBi4xY-210" value="VAR" style="shape=partialRectangle;connectable=0;fillColor=none;top=0;left=0;bottom=0;right=0;editable=1;overflow=hidden;" parent="5rbJTKTEX6LRlRTBi4xY-209" vertex="1">
          <mxGeometry width="30" height="30" as="geometry">
            <mxRectangle width="30" height="30" as="alternateBounds" />
          </mxGeometry>
        </mxCell>
        <mxCell id="5rbJTKTEX6LRlRTBi4xY-211" value="nombre especialidad" style="shape=partialRectangle;connectable=0;fillColor=none;top=0;left=0;bottom=0;right=0;align=left;spacingLeft=6;overflow=hidden;" parent="5rbJTKTEX6LRlRTBi4xY-209" vertex="1">
          <mxGeometry x="30" width="170" height="30" as="geometry">
            <mxRectangle width="170" height="30" as="alternateBounds" />
          </mxGeometry>
        </mxCell>
        <mxCell id="5rbJTKTEX6LRlRTBi4xY-212" value="" style="shape=tableRow;horizontal=0;startSize=0;swimlaneHead=0;swimlaneBody=0;fillColor=none;collapsible=0;dropTarget=0;points=[[0,0.5],[1,0.5]];portConstraint=eastwest;top=0;left=0;right=0;bottom=0;" parent="5rbJTKTEX6LRlRTBi4xY-205" vertex="1">
          <mxGeometry y="90" width="200" height="30" as="geometry" />
        </mxCell>
        <mxCell id="5rbJTKTEX6LRlRTBi4xY-213" value="VAR" style="shape=partialRectangle;connectable=0;fillColor=none;top=0;left=0;bottom=0;right=0;editable=1;overflow=hidden;" parent="5rbJTKTEX6LRlRTBi4xY-212" vertex="1">
          <mxGeometry width="30" height="30" as="geometry">
            <mxRectangle width="30" height="30" as="alternateBounds" />
          </mxGeometry>
        </mxCell>
        <mxCell id="5rbJTKTEX6LRlRTBi4xY-214" value="comprobante de especialidad" style="shape=partialRectangle;connectable=0;fillColor=none;top=0;left=0;bottom=0;right=0;align=left;spacingLeft=6;overflow=hidden;" parent="5rbJTKTEX6LRlRTBi4xY-212" vertex="1">
          <mxGeometry x="30" width="170" height="30" as="geometry">
            <mxRectangle width="170" height="30" as="alternateBounds" />
          </mxGeometry>
        </mxCell>
        <mxCell id="MMJw5J5n7cN4bbk-WRCq-1" value="Usuario" style="shape=table;startSize=40;container=1;collapsible=1;childLayout=tableLayout;fixedRows=1;rowLines=0;fontStyle=1;align=center;resizeLast=1;movable=1;resizable=1;rotatable=1;deletable=1;editable=1;connectable=1;locked=0;" parent="1" vertex="1">
          <mxGeometry x="530" y="-60" width="180" height="430.0000000000002" as="geometry">
            <mxRectangle x="-130" y="160" width="70" height="30" as="alternateBounds" />
          </mxGeometry>
        </mxCell>
        <mxCell id="MMJw5J5n7cN4bbk-WRCq-2" value="" style="shape=tableRow;horizontal=0;startSize=0;swimlaneHead=0;swimlaneBody=0;fillColor=none;collapsible=0;dropTarget=0;points=[[0,0.5],[1,0.5]];portConstraint=eastwest;top=0;left=0;right=0;bottom=1;movable=1;resizable=1;rotatable=1;deletable=1;editable=1;connectable=1;locked=0;" parent="MMJw5J5n7cN4bbk-WRCq-1" vertex="1">
          <mxGeometry y="40" width="180" height="30" as="geometry" />
        </mxCell>
        <mxCell id="MMJw5J5n7cN4bbk-WRCq-3" value="PK" style="shape=partialRectangle;connectable=1;fillColor=none;top=0;left=0;bottom=0;right=0;fontStyle=1;overflow=hidden;movable=1;resizable=1;rotatable=1;deletable=1;editable=1;locked=0;" parent="MMJw5J5n7cN4bbk-WRCq-2" vertex="1">
          <mxGeometry width="40" height="30" as="geometry">
            <mxRectangle width="40" height="30" as="alternateBounds" />
          </mxGeometry>
        </mxCell>
        <mxCell id="MMJw5J5n7cN4bbk-WRCq-4" value="ID_Usuario" style="shape=partialRectangle;connectable=1;fillColor=none;top=0;left=0;bottom=0;right=0;align=left;spacingLeft=6;fontStyle=5;overflow=hidden;movable=1;resizable=1;rotatable=1;deletable=1;editable=1;locked=0;" parent="MMJw5J5n7cN4bbk-WRCq-2" vertex="1">
          <mxGeometry x="40" width="140" height="30" as="geometry">
            <mxRectangle width="140" height="30" as="alternateBounds" />
          </mxGeometry>
        </mxCell>
        <mxCell id="MMJw5J5n7cN4bbk-WRCq-5" value="" style="shape=tableRow;horizontal=0;startSize=0;swimlaneHead=0;swimlaneBody=0;fillColor=none;collapsible=0;dropTarget=0;points=[[0,0.5],[1,0.5]];portConstraint=eastwest;top=0;left=0;right=0;bottom=0;movable=1;resizable=1;rotatable=1;deletable=1;editable=1;connectable=1;locked=0;" parent="MMJw5J5n7cN4bbk-WRCq-1" vertex="1">
          <mxGeometry y="70" width="180" height="30" as="geometry" />
        </mxCell>
        <mxCell id="MMJw5J5n7cN4bbk-WRCq-6" value="VAR" style="shape=partialRectangle;connectable=1;fillColor=none;top=0;left=0;bottom=0;right=0;editable=1;overflow=hidden;movable=1;resizable=1;rotatable=1;deletable=1;locked=0;" parent="MMJw5J5n7cN4bbk-WRCq-5" vertex="1">
          <mxGeometry width="40" height="30" as="geometry">
            <mxRectangle width="40" height="30" as="alternateBounds" />
          </mxGeometry>
        </mxCell>
        <mxCell id="MMJw5J5n7cN4bbk-WRCq-7" value="NombreUser" style="shape=partialRectangle;connectable=1;fillColor=none;top=0;left=0;bottom=0;right=0;align=left;spacingLeft=6;overflow=hidden;movable=1;resizable=1;rotatable=1;deletable=1;editable=1;locked=0;" parent="MMJw5J5n7cN4bbk-WRCq-5" vertex="1">
          <mxGeometry x="40" width="140" height="30" as="geometry">
            <mxRectangle width="140" height="30" as="alternateBounds" />
          </mxGeometry>
        </mxCell>
        <mxCell id="MMJw5J5n7cN4bbk-WRCq-11" value="" style="shape=tableRow;horizontal=0;startSize=0;swimlaneHead=0;swimlaneBody=0;fillColor=none;collapsible=0;dropTarget=0;points=[[0,0.5],[1,0.5]];portConstraint=eastwest;top=0;left=0;right=0;bottom=0;movable=1;resizable=1;rotatable=1;deletable=1;editable=1;connectable=1;locked=0;" parent="MMJw5J5n7cN4bbk-WRCq-1" vertex="1">
          <mxGeometry y="100" width="180" height="30" as="geometry" />
        </mxCell>
        <mxCell id="MMJw5J5n7cN4bbk-WRCq-12" value="VAR" style="shape=partialRectangle;connectable=1;fillColor=none;top=0;left=0;bottom=0;right=0;editable=1;overflow=hidden;movable=1;resizable=1;rotatable=1;deletable=1;locked=0;" parent="MMJw5J5n7cN4bbk-WRCq-11" vertex="1">
          <mxGeometry width="40" height="30" as="geometry">
            <mxRectangle width="40" height="30" as="alternateBounds" />
          </mxGeometry>
        </mxCell>
        <mxCell id="MMJw5J5n7cN4bbk-WRCq-13" value="ApellidoP" style="shape=partialRectangle;connectable=1;fillColor=none;top=0;left=0;bottom=0;right=0;align=left;spacingLeft=6;overflow=hidden;movable=1;resizable=1;rotatable=1;deletable=1;editable=1;locked=0;" parent="MMJw5J5n7cN4bbk-WRCq-11" vertex="1">
          <mxGeometry x="40" width="140" height="30" as="geometry">
            <mxRectangle width="140" height="30" as="alternateBounds" />
          </mxGeometry>
        </mxCell>
        <mxCell id="MMJw5J5n7cN4bbk-WRCq-17" style="shape=tableRow;horizontal=0;startSize=0;swimlaneHead=0;swimlaneBody=0;fillColor=none;collapsible=0;dropTarget=0;points=[[0,0.5],[1,0.5]];portConstraint=eastwest;top=0;left=0;right=0;bottom=0;movable=1;resizable=1;rotatable=1;deletable=1;editable=1;connectable=1;locked=0;" parent="MMJw5J5n7cN4bbk-WRCq-1" vertex="1">
          <mxGeometry y="130" width="180" height="30" as="geometry" />
        </mxCell>
        <mxCell id="MMJw5J5n7cN4bbk-WRCq-18" value="VAR" style="shape=partialRectangle;connectable=1;fillColor=none;top=0;left=0;bottom=0;right=0;editable=1;overflow=hidden;movable=1;resizable=1;rotatable=1;deletable=1;locked=0;" parent="MMJw5J5n7cN4bbk-WRCq-17" vertex="1">
          <mxGeometry width="40" height="30" as="geometry">
            <mxRectangle width="40" height="30" as="alternateBounds" />
          </mxGeometry>
        </mxCell>
        <mxCell id="MMJw5J5n7cN4bbk-WRCq-19" value="ApellidoM" style="shape=partialRectangle;connectable=1;fillColor=none;top=0;left=0;bottom=0;right=0;align=left;spacingLeft=6;overflow=hidden;movable=1;resizable=1;rotatable=1;deletable=1;editable=1;locked=0;" parent="MMJw5J5n7cN4bbk-WRCq-17" vertex="1">
          <mxGeometry x="40" width="140" height="30" as="geometry">
            <mxRectangle width="140" height="30" as="alternateBounds" />
          </mxGeometry>
        </mxCell>
        <mxCell id="6P9PlGfECAOS66v7_T0b-7" style="shape=tableRow;horizontal=0;startSize=0;swimlaneHead=0;swimlaneBody=0;fillColor=none;collapsible=0;dropTarget=0;points=[[0,0.5],[1,0.5]];portConstraint=eastwest;top=0;left=0;right=0;bottom=0;movable=1;resizable=1;rotatable=1;deletable=1;editable=1;connectable=1;locked=0;" parent="MMJw5J5n7cN4bbk-WRCq-1" vertex="1">
          <mxGeometry y="160" width="180" height="30" as="geometry" />
        </mxCell>
        <mxCell id="6P9PlGfECAOS66v7_T0b-8" value="VAR" style="shape=partialRectangle;connectable=1;fillColor=none;top=0;left=0;bottom=0;right=0;editable=1;overflow=hidden;movable=1;resizable=1;rotatable=1;deletable=1;locked=0;" parent="6P9PlGfECAOS66v7_T0b-7" vertex="1">
          <mxGeometry width="40" height="30" as="geometry">
            <mxRectangle width="40" height="30" as="alternateBounds" />
          </mxGeometry>
        </mxCell>
        <mxCell id="6P9PlGfECAOS66v7_T0b-9" value="Telefono" style="shape=partialRectangle;connectable=1;fillColor=none;top=0;left=0;bottom=0;right=0;align=left;spacingLeft=6;overflow=hidden;movable=1;resizable=1;rotatable=1;deletable=1;editable=1;locked=0;" parent="6P9PlGfECAOS66v7_T0b-7" vertex="1">
          <mxGeometry x="40" width="140" height="30" as="geometry">
            <mxRectangle width="140" height="30" as="alternateBounds" />
          </mxGeometry>
        </mxCell>
        <mxCell id="MMJw5J5n7cN4bbk-WRCq-20" style="shape=tableRow;horizontal=0;startSize=0;swimlaneHead=0;swimlaneBody=0;fillColor=none;collapsible=0;dropTarget=0;points=[[0,0.5],[1,0.5]];portConstraint=eastwest;top=0;left=0;right=0;bottom=0;movable=1;resizable=1;rotatable=1;deletable=1;editable=1;connectable=1;locked=0;" parent="MMJw5J5n7cN4bbk-WRCq-1" vertex="1">
          <mxGeometry y="190" width="180" height="30" as="geometry" />
        </mxCell>
        <mxCell id="MMJw5J5n7cN4bbk-WRCq-21" value="VAR" style="shape=partialRectangle;connectable=1;fillColor=none;top=0;left=0;bottom=0;right=0;editable=1;overflow=hidden;movable=1;resizable=1;rotatable=1;deletable=1;locked=0;" parent="MMJw5J5n7cN4bbk-WRCq-20" vertex="1">
          <mxGeometry width="40" height="30" as="geometry">
            <mxRectangle width="40" height="30" as="alternateBounds" />
          </mxGeometry>
        </mxCell>
        <mxCell id="MMJw5J5n7cN4bbk-WRCq-22" value="Email" style="shape=partialRectangle;connectable=1;fillColor=none;top=0;left=0;bottom=0;right=0;align=left;spacingLeft=6;overflow=hidden;movable=1;resizable=1;rotatable=1;deletable=1;editable=1;locked=0;" parent="MMJw5J5n7cN4bbk-WRCq-20" vertex="1">
          <mxGeometry x="40" width="140" height="30" as="geometry">
            <mxRectangle width="140" height="30" as="alternateBounds" />
          </mxGeometry>
        </mxCell>
        <mxCell id="MMJw5J5n7cN4bbk-WRCq-23" style="shape=tableRow;horizontal=0;startSize=0;swimlaneHead=0;swimlaneBody=0;fillColor=none;collapsible=0;dropTarget=0;points=[[0,0.5],[1,0.5]];portConstraint=eastwest;top=0;left=0;right=0;bottom=0;movable=1;resizable=1;rotatable=1;deletable=1;editable=1;connectable=1;locked=0;" parent="MMJw5J5n7cN4bbk-WRCq-1" vertex="1">
          <mxGeometry y="220" width="180" height="30" as="geometry" />
        </mxCell>
        <mxCell id="MMJw5J5n7cN4bbk-WRCq-24" value="DATE" style="shape=partialRectangle;connectable=1;fillColor=none;top=0;left=0;bottom=0;right=0;editable=1;overflow=hidden;movable=1;resizable=1;rotatable=1;deletable=1;locked=0;" parent="MMJw5J5n7cN4bbk-WRCq-23" vertex="1">
          <mxGeometry width="40" height="30" as="geometry">
            <mxRectangle width="40" height="30" as="alternateBounds" />
          </mxGeometry>
        </mxCell>
        <mxCell id="MMJw5J5n7cN4bbk-WRCq-25" value="FechaNac" style="shape=partialRectangle;connectable=1;fillColor=none;top=0;left=0;bottom=0;right=0;align=left;spacingLeft=6;overflow=hidden;movable=1;resizable=1;rotatable=1;deletable=1;editable=1;locked=0;" parent="MMJw5J5n7cN4bbk-WRCq-23" vertex="1">
          <mxGeometry x="40" width="140" height="30" as="geometry">
            <mxRectangle width="140" height="30" as="alternateBounds" />
          </mxGeometry>
        </mxCell>
        <mxCell id="MMJw5J5n7cN4bbk-WRCq-26" style="shape=tableRow;horizontal=0;startSize=0;swimlaneHead=0;swimlaneBody=0;fillColor=none;collapsible=0;dropTarget=0;points=[[0,0.5],[1,0.5]];portConstraint=eastwest;top=0;left=0;right=0;bottom=0;movable=1;resizable=1;rotatable=1;deletable=1;editable=1;connectable=1;locked=0;" parent="MMJw5J5n7cN4bbk-WRCq-1" vertex="1">
          <mxGeometry y="250" width="180" height="30" as="geometry" />
        </mxCell>
        <mxCell id="MMJw5J5n7cN4bbk-WRCq-27" value="DATE" style="shape=partialRectangle;connectable=1;fillColor=none;top=0;left=0;bottom=0;right=0;editable=1;overflow=hidden;movable=1;resizable=1;rotatable=1;deletable=1;locked=0;" parent="MMJw5J5n7cN4bbk-WRCq-26" vertex="1">
          <mxGeometry width="40" height="30" as="geometry">
            <mxRectangle width="40" height="30" as="alternateBounds" />
          </mxGeometry>
        </mxCell>
        <mxCell id="MMJw5J5n7cN4bbk-WRCq-28" value="FechaReg" style="shape=partialRectangle;connectable=1;fillColor=none;top=0;left=0;bottom=0;right=0;align=left;spacingLeft=6;overflow=hidden;movable=1;resizable=1;rotatable=1;deletable=1;editable=1;locked=0;" parent="MMJw5J5n7cN4bbk-WRCq-26" vertex="1">
          <mxGeometry x="40" width="140" height="30" as="geometry">
            <mxRectangle width="140" height="30" as="alternateBounds" />
          </mxGeometry>
        </mxCell>
        <mxCell id="MMJw5J5n7cN4bbk-WRCq-29" style="shape=tableRow;horizontal=0;startSize=0;swimlaneHead=0;swimlaneBody=0;fillColor=none;collapsible=0;dropTarget=0;points=[[0,0.5],[1,0.5]];portConstraint=eastwest;top=0;left=0;right=0;bottom=0;movable=1;resizable=1;rotatable=1;deletable=1;editable=1;connectable=1;locked=0;" parent="MMJw5J5n7cN4bbk-WRCq-1" vertex="1">
          <mxGeometry y="280" width="180" height="30" as="geometry" />
        </mxCell>
        <mxCell id="MMJw5J5n7cN4bbk-WRCq-30" value="VAR" style="shape=partialRectangle;connectable=1;fillColor=none;top=0;left=0;bottom=0;right=0;editable=1;overflow=hidden;movable=1;resizable=1;rotatable=1;deletable=1;locked=0;" parent="MMJw5J5n7cN4bbk-WRCq-29" vertex="1">
          <mxGeometry width="40" height="30" as="geometry">
            <mxRectangle width="40" height="30" as="alternateBounds" />
          </mxGeometry>
        </mxCell>
        <mxCell id="MMJw5J5n7cN4bbk-WRCq-31" value="IMG" style="shape=partialRectangle;connectable=1;fillColor=none;top=0;left=0;bottom=0;right=0;align=left;spacingLeft=6;overflow=hidden;movable=1;resizable=1;rotatable=1;deletable=1;editable=1;locked=0;" parent="MMJw5J5n7cN4bbk-WRCq-29" vertex="1">
          <mxGeometry x="40" width="140" height="30" as="geometry">
            <mxRectangle width="140" height="30" as="alternateBounds" />
          </mxGeometry>
        </mxCell>
        <mxCell id="MMJw5J5n7cN4bbk-WRCq-32" style="shape=tableRow;horizontal=0;startSize=0;swimlaneHead=0;swimlaneBody=0;fillColor=none;collapsible=0;dropTarget=0;points=[[0,0.5],[1,0.5]];portConstraint=eastwest;top=0;left=0;right=0;bottom=0;movable=1;resizable=1;rotatable=1;deletable=1;editable=1;connectable=1;locked=0;" parent="MMJw5J5n7cN4bbk-WRCq-1" vertex="1">
          <mxGeometry y="310" width="180" height="30" as="geometry" />
        </mxCell>
        <mxCell id="MMJw5J5n7cN4bbk-WRCq-33" value="VAR" style="shape=partialRectangle;connectable=1;fillColor=none;top=0;left=0;bottom=0;right=0;editable=1;overflow=hidden;movable=1;resizable=1;rotatable=1;deletable=1;locked=0;" parent="MMJw5J5n7cN4bbk-WRCq-32" vertex="1">
          <mxGeometry width="40" height="30" as="geometry">
            <mxRectangle width="40" height="30" as="alternateBounds" />
          </mxGeometry>
        </mxCell>
        <mxCell id="MMJw5J5n7cN4bbk-WRCq-34" value="Password" style="shape=partialRectangle;connectable=1;fillColor=none;top=0;left=0;bottom=0;right=0;align=left;spacingLeft=6;overflow=hidden;movable=1;resizable=1;rotatable=1;deletable=1;editable=1;locked=0;" parent="MMJw5J5n7cN4bbk-WRCq-32" vertex="1">
          <mxGeometry x="40" width="140" height="30" as="geometry">
            <mxRectangle width="140" height="30" as="alternateBounds" />
          </mxGeometry>
        </mxCell>
        <mxCell id="MMJw5J5n7cN4bbk-WRCq-35" style="shape=tableRow;horizontal=0;startSize=0;swimlaneHead=0;swimlaneBody=0;fillColor=none;collapsible=0;dropTarget=0;points=[[0,0.5],[1,0.5]];portConstraint=eastwest;top=0;left=0;right=0;bottom=0;movable=1;resizable=1;rotatable=1;deletable=1;editable=1;connectable=1;locked=0;" parent="MMJw5J5n7cN4bbk-WRCq-1" vertex="1">
          <mxGeometry y="340" width="180" height="30" as="geometry" />
        </mxCell>
        <mxCell id="MMJw5J5n7cN4bbk-WRCq-36" value="FK" style="shape=partialRectangle;connectable=1;fillColor=none;top=0;left=0;bottom=0;right=0;editable=1;overflow=hidden;movable=1;resizable=1;rotatable=1;deletable=1;locked=0;" parent="MMJw5J5n7cN4bbk-WRCq-35" vertex="1">
          <mxGeometry width="40" height="30" as="geometry">
            <mxRectangle width="40" height="30" as="alternateBounds" />
          </mxGeometry>
        </mxCell>
        <mxCell id="MMJw5J5n7cN4bbk-WRCq-37" value="ID_Genero" style="shape=partialRectangle;connectable=1;fillColor=none;top=0;left=0;bottom=0;right=0;align=left;spacingLeft=6;overflow=hidden;movable=1;resizable=1;rotatable=1;deletable=1;editable=1;locked=0;fontStyle=4" parent="MMJw5J5n7cN4bbk-WRCq-35" vertex="1">
          <mxGeometry x="40" width="140" height="30" as="geometry">
            <mxRectangle width="140" height="30" as="alternateBounds" />
          </mxGeometry>
        </mxCell>
        <mxCell id="MMJw5J5n7cN4bbk-WRCq-38" style="shape=tableRow;horizontal=0;startSize=0;swimlaneHead=0;swimlaneBody=0;fillColor=none;collapsible=0;dropTarget=0;points=[[0,0.5],[1,0.5]];portConstraint=eastwest;top=0;left=0;right=0;bottom=0;movable=1;resizable=1;rotatable=1;deletable=1;editable=1;connectable=1;locked=0;" parent="MMJw5J5n7cN4bbk-WRCq-1" vertex="1">
          <mxGeometry y="370" width="180" height="30" as="geometry" />
        </mxCell>
        <mxCell id="MMJw5J5n7cN4bbk-WRCq-39" value="FK" style="shape=partialRectangle;connectable=1;fillColor=none;top=0;left=0;bottom=0;right=0;editable=1;overflow=hidden;movable=1;resizable=1;rotatable=1;deletable=1;locked=0;" parent="MMJw5J5n7cN4bbk-WRCq-38" vertex="1">
          <mxGeometry width="40" height="30" as="geometry">
            <mxRectangle width="40" height="30" as="alternateBounds" />
          </mxGeometry>
        </mxCell>
        <mxCell id="MMJw5J5n7cN4bbk-WRCq-40" value="ID_TUsuario" style="shape=partialRectangle;connectable=1;fillColor=none;top=0;left=0;bottom=0;right=0;align=left;spacingLeft=6;overflow=hidden;movable=1;resizable=1;rotatable=1;deletable=1;editable=1;locked=0;fontStyle=4" parent="MMJw5J5n7cN4bbk-WRCq-38" vertex="1">
          <mxGeometry x="40" width="140" height="30" as="geometry">
            <mxRectangle width="140" height="30" as="alternateBounds" />
          </mxGeometry>
        </mxCell>
        <mxCell id="om_u6W8Cn1pDqEuDOpGc-2" style="shape=tableRow;horizontal=0;startSize=0;swimlaneHead=0;swimlaneBody=0;fillColor=none;collapsible=0;dropTarget=0;points=[[0,0.5],[1,0.5]];portConstraint=eastwest;top=0;left=0;right=0;bottom=0;movable=1;resizable=1;rotatable=1;deletable=1;editable=1;connectable=1;locked=0;" vertex="1" parent="MMJw5J5n7cN4bbk-WRCq-1">
          <mxGeometry y="400" width="180" height="30" as="geometry" />
        </mxCell>
        <mxCell id="om_u6W8Cn1pDqEuDOpGc-3" value="FK" style="shape=partialRectangle;connectable=1;fillColor=none;top=0;left=0;bottom=0;right=0;editable=1;overflow=hidden;movable=1;resizable=1;rotatable=1;deletable=1;locked=0;" vertex="1" parent="om_u6W8Cn1pDqEuDOpGc-2">
          <mxGeometry width="40" height="30" as="geometry">
            <mxRectangle width="40" height="30" as="alternateBounds" />
          </mxGeometry>
        </mxCell>
        <mxCell id="om_u6W8Cn1pDqEuDOpGc-4" value="ID_expediente" style="shape=partialRectangle;connectable=1;fillColor=none;top=0;left=0;bottom=0;right=0;align=left;spacingLeft=6;overflow=hidden;movable=1;resizable=1;rotatable=1;deletable=1;editable=1;locked=0;fontStyle=4" vertex="1" parent="om_u6W8Cn1pDqEuDOpGc-2">
          <mxGeometry x="40" width="140" height="30" as="geometry">
            <mxRectangle width="140" height="30" as="alternateBounds" />
          </mxGeometry>
        </mxCell>
        <mxCell id="aZEC4Wq7XjsYyDXSxA4u-5" style="edgeStyle=orthogonalEdgeStyle;rounded=0;orthogonalLoop=1;jettySize=auto;html=1;exitX=0;exitY=0.5;exitDx=0;exitDy=0;entryX=0;entryY=0.5;entryDx=0;entryDy=0;endArrow=none;endFill=0;" parent="1" source="MMJw5J5n7cN4bbk-WRCq-36" target="5rbJTKTEX6LRlRTBi4xY-61" edge="1">
          <mxGeometry relative="1" as="geometry" />
        </mxCell>
        <mxCell id="RoCmZwz5vE77KqjRatXd-2" value="Expediente" style="shape=table;startSize=30;container=1;collapsible=1;childLayout=tableLayout;fixedRows=1;rowLines=0;fontStyle=1;align=center;resizeLast=1;" parent="1" vertex="1">
          <mxGeometry x="1060" y="-30" width="200" height="540" as="geometry" />
        </mxCell>
        <mxCell id="RoCmZwz5vE77KqjRatXd-3" value="" style="shape=tableRow;horizontal=0;startSize=0;swimlaneHead=0;swimlaneBody=0;fillColor=none;collapsible=0;dropTarget=0;points=[[0,0.5],[1,0.5]];portConstraint=eastwest;top=0;left=0;right=0;bottom=1;" parent="RoCmZwz5vE77KqjRatXd-2" vertex="1">
          <mxGeometry y="30" width="200" height="30" as="geometry" />
        </mxCell>
        <mxCell id="RoCmZwz5vE77KqjRatXd-4" value="PK" style="shape=partialRectangle;connectable=0;fillColor=none;top=0;left=0;bottom=0;right=0;fontStyle=1;overflow=hidden;" parent="RoCmZwz5vE77KqjRatXd-3" vertex="1">
          <mxGeometry width="30" height="30" as="geometry">
            <mxRectangle width="30" height="30" as="alternateBounds" />
          </mxGeometry>
        </mxCell>
        <mxCell id="RoCmZwz5vE77KqjRatXd-5" value="ID_Expediente" style="shape=partialRectangle;connectable=0;fillColor=none;top=0;left=0;bottom=0;right=0;align=left;spacingLeft=6;fontStyle=5;overflow=hidden;" parent="RoCmZwz5vE77KqjRatXd-3" vertex="1">
          <mxGeometry x="30" width="170" height="30" as="geometry">
            <mxRectangle width="170" height="30" as="alternateBounds" />
          </mxGeometry>
        </mxCell>
        <mxCell id="RoCmZwz5vE77KqjRatXd-6" value="" style="shape=tableRow;horizontal=0;startSize=0;swimlaneHead=0;swimlaneBody=0;fillColor=none;collapsible=0;dropTarget=0;points=[[0,0.5],[1,0.5]];portConstraint=eastwest;top=0;left=0;right=0;bottom=0;align=center;" parent="RoCmZwz5vE77KqjRatXd-2" vertex="1">
          <mxGeometry y="60" width="200" height="30" as="geometry" />
        </mxCell>
        <mxCell id="RoCmZwz5vE77KqjRatXd-7" value="VAR" style="shape=partialRectangle;connectable=0;fillColor=none;top=0;left=0;bottom=0;right=0;editable=1;overflow=hidden;" parent="RoCmZwz5vE77KqjRatXd-6" vertex="1">
          <mxGeometry width="30" height="30" as="geometry">
            <mxRectangle width="30" height="30" as="alternateBounds" />
          </mxGeometry>
        </mxCell>
        <mxCell id="RoCmZwz5vE77KqjRatXd-8" value="Comprobante especialidad" style="shape=partialRectangle;connectable=0;fillColor=none;top=0;left=0;bottom=0;right=0;align=left;spacingLeft=6;overflow=hidden;" parent="RoCmZwz5vE77KqjRatXd-6" vertex="1">
          <mxGeometry x="30" width="170" height="30" as="geometry">
            <mxRectangle width="170" height="30" as="alternateBounds" />
          </mxGeometry>
        </mxCell>
        <mxCell id="ZnQMzI3lpkPVIOxBxDPy-43" style="shape=tableRow;horizontal=0;startSize=0;swimlaneHead=0;swimlaneBody=0;fillColor=none;collapsible=0;dropTarget=0;points=[[0,0.5],[1,0.5]];portConstraint=eastwest;top=0;left=0;right=0;bottom=0;" parent="RoCmZwz5vE77KqjRatXd-2" vertex="1">
          <mxGeometry y="90" width="200" height="30" as="geometry" />
        </mxCell>
        <mxCell id="ZnQMzI3lpkPVIOxBxDPy-44" value="VAR" style="shape=partialRectangle;connectable=0;fillColor=none;top=0;left=0;bottom=0;right=0;editable=1;overflow=hidden;" parent="ZnQMzI3lpkPVIOxBxDPy-43" vertex="1">
          <mxGeometry width="30" height="30" as="geometry">
            <mxRectangle width="30" height="30" as="alternateBounds" />
          </mxGeometry>
        </mxCell>
        <mxCell id="ZnQMzI3lpkPVIOxBxDPy-45" value="Tipo de problema" style="shape=partialRectangle;connectable=0;fillColor=none;top=0;left=0;bottom=0;right=0;align=left;spacingLeft=6;overflow=hidden;" parent="ZnQMzI3lpkPVIOxBxDPy-43" vertex="1">
          <mxGeometry x="30" width="170" height="30" as="geometry">
            <mxRectangle width="170" height="30" as="alternateBounds" />
          </mxGeometry>
        </mxCell>
        <mxCell id="ZnQMzI3lpkPVIOxBxDPy-40" style="shape=tableRow;horizontal=0;startSize=0;swimlaneHead=0;swimlaneBody=0;fillColor=none;collapsible=0;dropTarget=0;points=[[0,0.5],[1,0.5]];portConstraint=eastwest;top=0;left=0;right=0;bottom=0;" parent="RoCmZwz5vE77KqjRatXd-2" vertex="1">
          <mxGeometry y="120" width="200" height="30" as="geometry" />
        </mxCell>
        <mxCell id="ZnQMzI3lpkPVIOxBxDPy-41" value="VAR" style="shape=partialRectangle;connectable=0;fillColor=none;top=0;left=0;bottom=0;right=0;editable=1;overflow=hidden;" parent="ZnQMzI3lpkPVIOxBxDPy-40" vertex="1">
          <mxGeometry width="30" height="30" as="geometry">
            <mxRectangle width="30" height="30" as="alternateBounds" />
          </mxGeometry>
        </mxCell>
        <mxCell id="ZnQMzI3lpkPVIOxBxDPy-42" value="Relacion con el tutor" style="shape=partialRectangle;connectable=0;fillColor=none;top=0;left=0;bottom=0;right=0;align=left;spacingLeft=6;overflow=hidden;" parent="ZnQMzI3lpkPVIOxBxDPy-40" vertex="1">
          <mxGeometry x="30" width="170" height="30" as="geometry">
            <mxRectangle width="170" height="30" as="alternateBounds" />
          </mxGeometry>
        </mxCell>
        <mxCell id="ZnQMzI3lpkPVIOxBxDPy-37" style="shape=tableRow;horizontal=0;startSize=0;swimlaneHead=0;swimlaneBody=0;fillColor=none;collapsible=0;dropTarget=0;points=[[0,0.5],[1,0.5]];portConstraint=eastwest;top=0;left=0;right=0;bottom=0;" parent="RoCmZwz5vE77KqjRatXd-2" vertex="1">
          <mxGeometry y="150" width="200" height="30" as="geometry" />
        </mxCell>
        <mxCell id="ZnQMzI3lpkPVIOxBxDPy-38" value="VAR" style="shape=partialRectangle;connectable=0;fillColor=none;top=0;left=0;bottom=0;right=0;editable=1;overflow=hidden;" parent="ZnQMzI3lpkPVIOxBxDPy-37" vertex="1">
          <mxGeometry width="30" height="30" as="geometry">
            <mxRectangle width="30" height="30" as="alternateBounds" />
          </mxGeometry>
        </mxCell>
        <mxCell id="ZnQMzI3lpkPVIOxBxDPy-39" value="Preferencias de notificacon" style="shape=partialRectangle;connectable=0;fillColor=none;top=0;left=0;bottom=0;right=0;align=left;spacingLeft=6;overflow=hidden;" parent="ZnQMzI3lpkPVIOxBxDPy-37" vertex="1">
          <mxGeometry x="30" width="170" height="30" as="geometry">
            <mxRectangle width="170" height="30" as="alternateBounds" />
          </mxGeometry>
        </mxCell>
        <mxCell id="ZnQMzI3lpkPVIOxBxDPy-34" style="shape=tableRow;horizontal=0;startSize=0;swimlaneHead=0;swimlaneBody=0;fillColor=none;collapsible=0;dropTarget=0;points=[[0,0.5],[1,0.5]];portConstraint=eastwest;top=0;left=0;right=0;bottom=0;" parent="RoCmZwz5vE77KqjRatXd-2" vertex="1">
          <mxGeometry y="180" width="200" height="30" as="geometry" />
        </mxCell>
        <mxCell id="ZnQMzI3lpkPVIOxBxDPy-35" value="VAR" style="shape=partialRectangle;connectable=0;fillColor=none;top=0;left=0;bottom=0;right=0;editable=1;overflow=hidden;" parent="ZnQMzI3lpkPVIOxBxDPy-34" vertex="1">
          <mxGeometry width="30" height="30" as="geometry">
            <mxRectangle width="30" height="30" as="alternateBounds" />
          </mxGeometry>
        </mxCell>
        <mxCell id="ZnQMzI3lpkPVIOxBxDPy-36" value="Relacion con el paciente" style="shape=partialRectangle;connectable=0;fillColor=none;top=0;left=0;bottom=0;right=0;align=left;spacingLeft=6;overflow=hidden;" parent="ZnQMzI3lpkPVIOxBxDPy-34" vertex="1">
          <mxGeometry x="30" width="170" height="30" as="geometry">
            <mxRectangle width="170" height="30" as="alternateBounds" />
          </mxGeometry>
        </mxCell>
        <mxCell id="ZnQMzI3lpkPVIOxBxDPy-31" style="shape=tableRow;horizontal=0;startSize=0;swimlaneHead=0;swimlaneBody=0;fillColor=none;collapsible=0;dropTarget=0;points=[[0,0.5],[1,0.5]];portConstraint=eastwest;top=0;left=0;right=0;bottom=0;" parent="RoCmZwz5vE77KqjRatXd-2" vertex="1">
          <mxGeometry y="210" width="200" height="30" as="geometry" />
        </mxCell>
        <mxCell id="ZnQMzI3lpkPVIOxBxDPy-32" value="VAR" style="shape=partialRectangle;connectable=0;fillColor=none;top=0;left=0;bottom=0;right=0;editable=1;overflow=hidden;" parent="ZnQMzI3lpkPVIOxBxDPy-31" vertex="1">
          <mxGeometry width="30" height="30" as="geometry">
            <mxRectangle width="30" height="30" as="alternateBounds" />
          </mxGeometry>
        </mxCell>
        <mxCell id="ZnQMzI3lpkPVIOxBxDPy-33" value="Privilegios de administrador" style="shape=partialRectangle;connectable=0;fillColor=none;top=0;left=0;bottom=0;right=0;align=left;spacingLeft=6;overflow=hidden;" parent="ZnQMzI3lpkPVIOxBxDPy-31" vertex="1">
          <mxGeometry x="30" width="170" height="30" as="geometry">
            <mxRectangle width="170" height="30" as="alternateBounds" />
          </mxGeometry>
        </mxCell>
        <mxCell id="ZnQMzI3lpkPVIOxBxDPy-28" style="shape=tableRow;horizontal=0;startSize=0;swimlaneHead=0;swimlaneBody=0;fillColor=none;collapsible=0;dropTarget=0;points=[[0,0.5],[1,0.5]];portConstraint=eastwest;top=0;left=0;right=0;bottom=0;" parent="RoCmZwz5vE77KqjRatXd-2" vertex="1">
          <mxGeometry y="240" width="200" height="30" as="geometry" />
        </mxCell>
        <mxCell id="ZnQMzI3lpkPVIOxBxDPy-29" value="VAR" style="shape=partialRectangle;connectable=0;fillColor=none;top=0;left=0;bottom=0;right=0;editable=1;overflow=hidden;" parent="ZnQMzI3lpkPVIOxBxDPy-28" vertex="1">
          <mxGeometry width="30" height="30" as="geometry">
            <mxRectangle width="30" height="30" as="alternateBounds" />
          </mxGeometry>
        </mxCell>
        <mxCell id="ZnQMzI3lpkPVIOxBxDPy-30" value="Nombre especialidad" style="shape=partialRectangle;connectable=0;fillColor=none;top=0;left=0;bottom=0;right=0;align=left;spacingLeft=6;overflow=hidden;" parent="ZnQMzI3lpkPVIOxBxDPy-28" vertex="1">
          <mxGeometry x="30" width="170" height="30" as="geometry">
            <mxRectangle width="170" height="30" as="alternateBounds" />
          </mxGeometry>
        </mxCell>
        <mxCell id="ZnQMzI3lpkPVIOxBxDPy-25" style="shape=tableRow;horizontal=0;startSize=0;swimlaneHead=0;swimlaneBody=0;fillColor=none;collapsible=0;dropTarget=0;points=[[0,0.5],[1,0.5]];portConstraint=eastwest;top=0;left=0;right=0;bottom=0;" parent="RoCmZwz5vE77KqjRatXd-2" vertex="1">
          <mxGeometry y="270" width="200" height="30" as="geometry" />
        </mxCell>
        <mxCell id="ZnQMzI3lpkPVIOxBxDPy-26" value="TIME" style="shape=partialRectangle;connectable=0;fillColor=none;top=0;left=0;bottom=0;right=0;editable=1;overflow=hidden;" parent="ZnQMzI3lpkPVIOxBxDPy-25" vertex="1">
          <mxGeometry width="30" height="30" as="geometry">
            <mxRectangle width="30" height="30" as="alternateBounds" />
          </mxGeometry>
        </mxCell>
        <mxCell id="ZnQMzI3lpkPVIOxBxDPy-27" value="Horas Disp" style="shape=partialRectangle;connectable=0;fillColor=none;top=0;left=0;bottom=0;right=0;align=left;spacingLeft=6;overflow=hidden;" parent="ZnQMzI3lpkPVIOxBxDPy-25" vertex="1">
          <mxGeometry x="30" width="170" height="30" as="geometry">
            <mxRectangle width="170" height="30" as="alternateBounds" />
          </mxGeometry>
        </mxCell>
        <mxCell id="ZnQMzI3lpkPVIOxBxDPy-22" style="shape=tableRow;horizontal=0;startSize=0;swimlaneHead=0;swimlaneBody=0;fillColor=none;collapsible=0;dropTarget=0;points=[[0,0.5],[1,0.5]];portConstraint=eastwest;top=0;left=0;right=0;bottom=0;" parent="RoCmZwz5vE77KqjRatXd-2" vertex="1">
          <mxGeometry y="300" width="200" height="30" as="geometry" />
        </mxCell>
        <mxCell id="ZnQMzI3lpkPVIOxBxDPy-23" value="VAR" style="shape=partialRectangle;connectable=0;fillColor=none;top=0;left=0;bottom=0;right=0;editable=1;overflow=hidden;" parent="ZnQMzI3lpkPVIOxBxDPy-22" vertex="1">
          <mxGeometry width="30" height="30" as="geometry">
            <mxRectangle width="30" height="30" as="alternateBounds" />
          </mxGeometry>
        </mxCell>
        <mxCell id="ZnQMzI3lpkPVIOxBxDPy-24" value="Certificaciones" style="shape=partialRectangle;connectable=0;fillColor=none;top=0;left=0;bottom=0;right=0;align=left;spacingLeft=6;overflow=hidden;" parent="ZnQMzI3lpkPVIOxBxDPy-22" vertex="1">
          <mxGeometry x="30" width="170" height="30" as="geometry">
            <mxRectangle width="170" height="30" as="alternateBounds" />
          </mxGeometry>
        </mxCell>
        <mxCell id="ZnQMzI3lpkPVIOxBxDPy-19" style="shape=tableRow;horizontal=0;startSize=0;swimlaneHead=0;swimlaneBody=0;fillColor=none;collapsible=0;dropTarget=0;points=[[0,0.5],[1,0.5]];portConstraint=eastwest;top=0;left=0;right=0;bottom=0;" parent="RoCmZwz5vE77KqjRatXd-2" vertex="1">
          <mxGeometry y="330" width="200" height="30" as="geometry" />
        </mxCell>
        <mxCell id="ZnQMzI3lpkPVIOxBxDPy-20" value="VAR" style="shape=partialRectangle;connectable=0;fillColor=none;top=0;left=0;bottom=0;right=0;editable=1;overflow=hidden;" parent="ZnQMzI3lpkPVIOxBxDPy-19" vertex="1">
          <mxGeometry width="30" height="30" as="geometry">
            <mxRectangle width="30" height="30" as="alternateBounds" />
          </mxGeometry>
        </mxCell>
        <mxCell id="ZnQMzI3lpkPVIOxBxDPy-21" value="Cedula" style="shape=partialRectangle;connectable=0;fillColor=none;top=0;left=0;bottom=0;right=0;align=left;spacingLeft=6;overflow=hidden;" parent="ZnQMzI3lpkPVIOxBxDPy-19" vertex="1">
          <mxGeometry x="30" width="170" height="30" as="geometry">
            <mxRectangle width="170" height="30" as="alternateBounds" />
          </mxGeometry>
        </mxCell>
        <mxCell id="J205iHk3niV-xtjeMusm-4" style="shape=tableRow;horizontal=0;startSize=0;swimlaneHead=0;swimlaneBody=0;fillColor=none;collapsible=0;dropTarget=0;points=[[0,0.5],[1,0.5]];portConstraint=eastwest;top=0;left=0;right=0;bottom=0;" parent="RoCmZwz5vE77KqjRatXd-2" vertex="1">
          <mxGeometry y="360" width="200" height="30" as="geometry" />
        </mxCell>
        <mxCell id="J205iHk3niV-xtjeMusm-5" value="FK" style="shape=partialRectangle;connectable=0;fillColor=none;top=0;left=0;bottom=0;right=0;editable=1;overflow=hidden;" parent="J205iHk3niV-xtjeMusm-4" vertex="1">
          <mxGeometry width="30" height="30" as="geometry">
            <mxRectangle width="30" height="30" as="alternateBounds" />
          </mxGeometry>
        </mxCell>
        <mxCell id="J205iHk3niV-xtjeMusm-6" value="ID_Usuario" style="shape=partialRectangle;connectable=0;fillColor=none;top=0;left=0;bottom=0;right=0;align=left;spacingLeft=6;overflow=hidden;" parent="J205iHk3niV-xtjeMusm-4" vertex="1">
          <mxGeometry x="30" width="170" height="30" as="geometry">
            <mxRectangle width="170" height="30" as="alternateBounds" />
          </mxGeometry>
        </mxCell>
        <mxCell id="ZnQMzI3lpkPVIOxBxDPy-16" style="shape=tableRow;horizontal=0;startSize=0;swimlaneHead=0;swimlaneBody=0;fillColor=none;collapsible=0;dropTarget=0;points=[[0,0.5],[1,0.5]];portConstraint=eastwest;top=0;left=0;right=0;bottom=0;" parent="RoCmZwz5vE77KqjRatXd-2" vertex="1">
          <mxGeometry y="390" width="200" height="30" as="geometry" />
        </mxCell>
        <mxCell id="ZnQMzI3lpkPVIOxBxDPy-17" value="FK" style="shape=partialRectangle;connectable=0;fillColor=none;top=0;left=0;bottom=0;right=0;editable=1;overflow=hidden;" parent="ZnQMzI3lpkPVIOxBxDPy-16" vertex="1">
          <mxGeometry width="30" height="30" as="geometry">
            <mxRectangle width="30" height="30" as="alternateBounds" />
          </mxGeometry>
        </mxCell>
        <mxCell id="ZnQMzI3lpkPVIOxBxDPy-18" value="ID Especialidad" style="shape=partialRectangle;connectable=0;fillColor=none;top=0;left=0;bottom=0;right=0;align=left;spacingLeft=6;overflow=hidden;" parent="ZnQMzI3lpkPVIOxBxDPy-16" vertex="1">
          <mxGeometry x="30" width="170" height="30" as="geometry">
            <mxRectangle width="170" height="30" as="alternateBounds" />
          </mxGeometry>
        </mxCell>
        <mxCell id="ZnQMzI3lpkPVIOxBxDPy-13" style="shape=tableRow;horizontal=0;startSize=0;swimlaneHead=0;swimlaneBody=0;fillColor=none;collapsible=0;dropTarget=0;points=[[0,0.5],[1,0.5]];portConstraint=eastwest;top=0;left=0;right=0;bottom=0;" parent="RoCmZwz5vE77KqjRatXd-2" vertex="1">
          <mxGeometry y="420" width="200" height="30" as="geometry" />
        </mxCell>
        <mxCell id="ZnQMzI3lpkPVIOxBxDPy-14" value="FK" style="shape=partialRectangle;connectable=0;fillColor=none;top=0;left=0;bottom=0;right=0;editable=1;overflow=hidden;" parent="ZnQMzI3lpkPVIOxBxDPy-13" vertex="1">
          <mxGeometry width="30" height="30" as="geometry">
            <mxRectangle width="30" height="30" as="alternateBounds" />
          </mxGeometry>
        </mxCell>
        <mxCell id="ZnQMzI3lpkPVIOxBxDPy-15" value="ID_Tratamiento" style="shape=partialRectangle;connectable=0;fillColor=none;top=0;left=0;bottom=0;right=0;align=left;spacingLeft=6;overflow=hidden;" parent="ZnQMzI3lpkPVIOxBxDPy-13" vertex="1">
          <mxGeometry x="30" width="170" height="30" as="geometry">
            <mxRectangle width="170" height="30" as="alternateBounds" />
          </mxGeometry>
        </mxCell>
        <mxCell id="ZnQMzI3lpkPVIOxBxDPy-10" style="shape=tableRow;horizontal=0;startSize=0;swimlaneHead=0;swimlaneBody=0;fillColor=none;collapsible=0;dropTarget=0;points=[[0,0.5],[1,0.5]];portConstraint=eastwest;top=0;left=0;right=0;bottom=0;" parent="RoCmZwz5vE77KqjRatXd-2" vertex="1">
          <mxGeometry y="450" width="200" height="30" as="geometry" />
        </mxCell>
        <mxCell id="ZnQMzI3lpkPVIOxBxDPy-11" value="FK" style="shape=partialRectangle;connectable=0;fillColor=none;top=0;left=0;bottom=0;right=0;editable=1;overflow=hidden;" parent="ZnQMzI3lpkPVIOxBxDPy-10" vertex="1">
          <mxGeometry width="30" height="30" as="geometry">
            <mxRectangle width="30" height="30" as="alternateBounds" />
          </mxGeometry>
        </mxCell>
        <mxCell id="ZnQMzI3lpkPVIOxBxDPy-12" value="ID_Diagnostico" style="shape=partialRectangle;connectable=0;fillColor=none;top=0;left=0;bottom=0;right=0;align=left;spacingLeft=6;overflow=hidden;" parent="ZnQMzI3lpkPVIOxBxDPy-10" vertex="1">
          <mxGeometry x="30" width="170" height="30" as="geometry">
            <mxRectangle width="170" height="30" as="alternateBounds" />
          </mxGeometry>
        </mxCell>
        <mxCell id="ZnQMzI3lpkPVIOxBxDPy-7" style="shape=tableRow;horizontal=0;startSize=0;swimlaneHead=0;swimlaneBody=0;fillColor=none;collapsible=0;dropTarget=0;points=[[0,0.5],[1,0.5]];portConstraint=eastwest;top=0;left=0;right=0;bottom=0;" parent="RoCmZwz5vE77KqjRatXd-2" vertex="1">
          <mxGeometry y="480" width="200" height="30" as="geometry" />
        </mxCell>
        <mxCell id="ZnQMzI3lpkPVIOxBxDPy-8" value="FK" style="shape=partialRectangle;connectable=0;fillColor=none;top=0;left=0;bottom=0;right=0;editable=1;overflow=hidden;" parent="ZnQMzI3lpkPVIOxBxDPy-7" vertex="1">
          <mxGeometry width="30" height="30" as="geometry">
            <mxRectangle width="30" height="30" as="alternateBounds" />
          </mxGeometry>
        </mxCell>
        <mxCell id="ZnQMzI3lpkPVIOxBxDPy-9" value="ID_Progreso" style="shape=partialRectangle;connectable=0;fillColor=none;top=0;left=0;bottom=0;right=0;align=left;spacingLeft=6;overflow=hidden;" parent="ZnQMzI3lpkPVIOxBxDPy-7" vertex="1">
          <mxGeometry x="30" width="170" height="30" as="geometry">
            <mxRectangle width="170" height="30" as="alternateBounds" />
          </mxGeometry>
        </mxCell>
        <mxCell id="ZnQMzI3lpkPVIOxBxDPy-4" style="shape=tableRow;horizontal=0;startSize=0;swimlaneHead=0;swimlaneBody=0;fillColor=none;collapsible=0;dropTarget=0;points=[[0,0.5],[1,0.5]];portConstraint=eastwest;top=0;left=0;right=0;bottom=0;" parent="RoCmZwz5vE77KqjRatXd-2" vertex="1">
          <mxGeometry y="510" width="200" height="30" as="geometry" />
        </mxCell>
        <mxCell id="ZnQMzI3lpkPVIOxBxDPy-5" value="FK" style="shape=partialRectangle;connectable=0;fillColor=none;top=0;left=0;bottom=0;right=0;editable=1;overflow=hidden;" parent="ZnQMzI3lpkPVIOxBxDPy-4" vertex="1">
          <mxGeometry width="30" height="30" as="geometry">
            <mxRectangle width="30" height="30" as="alternateBounds" />
          </mxGeometry>
        </mxCell>
        <mxCell id="ZnQMzI3lpkPVIOxBxDPy-6" value="ID_Actividades" style="shape=partialRectangle;connectable=0;fillColor=none;top=0;left=0;bottom=0;right=0;align=left;spacingLeft=6;overflow=hidden;" parent="ZnQMzI3lpkPVIOxBxDPy-4" vertex="1">
          <mxGeometry x="30" width="170" height="30" as="geometry">
            <mxRectangle width="170" height="30" as="alternateBounds" />
          </mxGeometry>
        </mxCell>
        <mxCell id="jwT-w3xaImrBtzL7j_Sv-1" style="edgeStyle=orthogonalEdgeStyle;rounded=0;orthogonalLoop=1;jettySize=auto;html=1;exitX=0;exitY=0.5;exitDx=0;exitDy=0;entryX=0;entryY=0.5;entryDx=0;entryDy=0;" parent="1" source="MMJw5J5n7cN4bbk-WRCq-39" target="5rbJTKTEX6LRlRTBi4xY-6" edge="1">
          <mxGeometry relative="1" as="geometry" />
        </mxCell>
        <mxCell id="om_u6W8Cn1pDqEuDOpGc-7" style="edgeStyle=orthogonalEdgeStyle;rounded=0;orthogonalLoop=1;jettySize=auto;html=1;entryX=0;entryY=0.5;entryDx=0;entryDy=0;" edge="1" parent="1" source="om_u6W8Cn1pDqEuDOpGc-4" target="RoCmZwz5vE77KqjRatXd-3">
          <mxGeometry relative="1" as="geometry">
            <Array as="points">
              <mxPoint x="800" y="355" />
              <mxPoint x="800" y="15" />
            </Array>
          </mxGeometry>
        </mxCell>
      </root>
    </mxGraphModel>
  </diagram>
</mxfile>
